<svg width="493" height="274" viewBox="0 0 493 274" fill="none" xmlns="http://www.w3.org/2000/svg">
<g opacity="0.3" clip-path="url(#clip0_296_3590)">
<g clip-path="url(#clip1_296_3590)">
<mask id="mask0_296_3590" style="mask-type:luminance" maskUnits="userSpaceOnUse" x="99" y="-108" width="286" height="284">
<path d="M384.807 -107.415H99.2197V175.341H384.807V-107.415Z" fill="white"/>
</mask>
<g mask="url(#mask0_296_3590)">
<mask id="mask1_296_3590" style="mask-type:luminance" maskUnits="userSpaceOnUse" x="99" y="-108" width="286" height="284">
<path d="M242.586 100.917L172.633 31.891L242.586 -39.2887L311.339 31.891L242.586 100.917ZM242.586 175.341L384.807 32.1363L242.586 -107.415L99.2197 32.1363L242.586 175.341Z" fill="white"/>
</mask>
<g mask="url(#mask1_296_3590)">
<path d="M384.807 -107.415H99.2197V175.341H384.807V-107.415Z" fill="url(#paint0_linear_296_3590)"/>
</g>
</g>
<path d="M242.014 274C228.007 274 214 268.739 203.345 258.188L16.0783 70.6022C5.75029 60.4064 0.0548872 46.7757 0.000385738 32.2726C-0.0541157 17.6605 5.66854 3.86617 16.0783 -6.54771L203.345 -194.134C224.737 -215.289 259.318 -215.289 280.465 -194.134L467.977 -6.54771C478.141 3.40273 484 17.4969 484 32.1363C484 46.7757 478.169 60.6518 467.977 70.6022L280.71 258.188C270.055 268.739 256.048 274 242.041 274H242.014ZM241.987 -207.356C228.688 -207.356 215.39 -202.312 205.198 -192.253L17.9586 -4.66667C8.03935 5.2565 2.61645 18.3693 2.67096 32.2726C2.69821 46.0669 8.14835 59.0161 17.9586 68.7212L205.226 256.307C225.527 276.372 258.555 276.372 278.857 256.307L466.124 68.7212C475.825 59.2614 481.357 45.9306 481.357 32.1363C481.357 18.342 475.798 4.76579 466.124 -4.66667L278.584 -192.253C268.529 -202.312 255.285 -207.356 241.987 -207.356ZM242.014 177.113L241.087 176.186L97.34 32.1636L242.014 -112.813L386.688 32.1636L242.014 177.14V177.113ZM101.073 32.1363L242.014 173.351L382.955 32.1363L242.014 -109.078L101.073 32.1363ZM241.851 103.261L170.753 31.891L241.851 -39.2342L313.193 31.891L241.851 103.261ZM174.487 31.891L241.851 99.5266L309.46 31.891L241.851 -35.4994L174.487 31.891Z" fill="#5387C6" fill-opacity="0.31"/>
</g>
</g>
<defs>
<linearGradient id="paint0_linear_296_3590" x1="242.206" y1="178.111" x2="242.206" y2="-93.4687" gradientUnits="userSpaceOnUse">
<stop stop-color="#5488C7"/>
<stop offset="0.28" stop-color="#5488C7"/>
<stop offset="0.99" stop-color="#5488C7"/>
<stop offset="1" stop-color="#5488C7"/>
</linearGradient>
<clipPath id="clip0_296_3590">
<rect width="493" height="274" fill="white"/>
</clipPath>
<clipPath id="clip1_296_3590">
<rect width="484" height="484" fill="white" transform="translate(0 -210)"/>
</clipPath>
</defs>
</svg>
