<svg width="100" height="90" viewBox="0 0 100 90" fill="none" xmlns="http://www.w3.org/2000/svg">
<g clip-path="url(#clip0_905_623)">
<path d="M99.0077 35.1152C98.1598 33.0931 96.497 31.5094 94.9393 30.0763L90.3649 25.7311C89.5236 24.9261 88.3669 23.8268 87.1181 22.6488C87.0261 22.7862 86.9341 22.9237 86.8289 23.048C87.9856 24.2652 89.0701 25.4039 89.8719 26.2219C91.3047 27.7597 95.0379 31.5291 96.3392 33.0473C99.4809 36.9083 99.2443 42.9811 95.682 46.4756C83.9502 57.8622 71.2785 70.2304 59.6781 81.7479L57.4368 83.9664C55.5505 86.067 52.8558 87.4216 49.9902 87.3823C47.4204 87.402 44.8966 86.3484 43.1023 84.5226C42.7605 84.1954 40.6771 82.1013 40.3024 81.7479L31.3376 72.8808C25.3304 66.9977 19.356 61.0884 13.3159 55.2446L4.29849 46.4691C1.49862 43.6944 0.663922 39.251 2.15587 35.606C2.87884 33.669 4.29849 32.2424 5.74444 30.77L10.1086 26.2219C10.9235 25.3646 12.054 24.1932 13.2568 22.9302C13.1647 22.7993 13.0793 22.6619 13.007 22.5179C11.7057 23.7417 10.4898 24.9 9.61562 25.7311L5.04118 30.0763C3.48351 31.5094 1.82068 33.0931 0.972828 35.1087C-0.900323 39.2052 -0.0590484 44.3423 3.04315 47.6405C5.98104 50.7162 8.92551 53.661 11.8634 56.6843C17.7326 62.6983 23.6675 68.6533 29.5762 74.6346L38.4819 83.5606L40.7099 85.7921C43.0497 88.3901 46.4543 90.0327 49.9837 89.9999C53.5131 90.0392 56.9176 88.3901 59.2574 85.7921L61.4855 83.5606C73.2239 71.7945 85.3895 59.5637 96.9242 47.6536C100.033 44.3488 100.861 39.2183 98.9945 35.1152H99.0077Z" fill="#1E1E1E"/>
<path d="M76.4707 49.126C73.9337 49.126 71.9949 48.2294 70.1217 47.3656C68.1631 46.4625 66.1454 45.5268 63.2338 45.5268C60.3222 45.5268 58.2979 46.4625 56.3458 47.3656C54.4727 48.2294 52.5338 49.126 49.9968 49.126C47.4599 49.126 45.521 48.2294 43.6478 47.3656C41.6892 46.4625 39.6715 45.5268 36.7599 45.5268C33.8483 45.5268 31.824 46.4625 29.872 47.3656C27.9988 48.2294 26.0599 49.126 23.523 49.126C20.986 49.126 19.2706 48.2098 17.6537 47.3329C16.1815 46.528 14.7947 45.7754 12.5864 45.5791C11.9226 45.5202 11.4362 44.9378 11.4953 44.2834C11.5545 43.6224 12.1263 43.1513 12.7967 43.1971C15.5111 43.4327 17.266 44.3946 18.8105 45.2388C20.2827 46.0437 21.5578 46.7374 23.523 46.7374C25.4881 46.7374 27.0721 46.0241 28.8598 45.1996C30.9498 44.2376 33.3225 43.1382 36.7599 43.1382C40.1973 43.1382 42.5699 44.231 44.66 45.1996C46.4477 46.0241 47.9857 46.7374 49.9968 46.7374C52.008 46.7374 53.546 46.0241 55.3337 45.1996C57.4237 44.2376 59.7964 43.1382 63.2338 43.1382C66.6712 43.1382 69.0438 44.231 71.1339 45.1996C72.9216 46.0241 74.4595 46.7374 76.4707 46.7374C78.4819 46.7374 79.7109 46.0437 81.1832 45.2388C82.7277 44.3946 84.4825 43.4392 87.197 43.1971C87.8608 43.1513 88.4457 43.629 88.4983 44.2834C88.5575 44.9443 88.0645 45.5268 87.4073 45.5791C85.1989 45.7754 83.8121 46.528 82.3399 47.3329C80.7231 48.2164 79.0537 49.126 76.4707 49.126Z" fill="#5387C6"/>
<path d="M22.9183 29.9586C17.6471 29.9586 11.4822 27.0072 11.4822 18.6832C11.4822 9.48889 21.7024 0.660996 22.1361 0.287986C22.5831 -0.0981113 23.2535 -0.0981113 23.7004 0.287986C24.1342 0.660996 34.3478 9.48889 34.3478 18.6832C34.3478 27.0072 28.1894 29.9586 22.9117 29.9586H22.9183ZM22.9183 2.82707C20.5916 5.03241 13.8943 11.9691 13.8943 18.6832C13.8943 26.9222 20.8019 27.5635 22.9183 27.5635C25.0346 27.5635 31.9423 26.9222 31.9423 18.6832C31.9423 11.9691 25.2449 5.03241 22.9183 2.82707Z" fill="#5387C6"/>
<path d="M22.9181 23.9643C17.5024 23.9643 17.5024 19.9855 17.5024 18.6767C17.5024 17.2632 17.9494 15.6468 18.8301 13.8799C19.1258 13.291 19.8488 13.0423 20.4403 13.3368C21.0384 13.6313 21.2816 14.3511 20.9858 14.9401C20.2694 16.3797 19.908 17.6297 19.908 18.6767C19.908 20.1622 19.908 21.5626 22.9181 21.5626C23.582 21.5626 24.1209 22.0992 24.1209 22.7602C24.1209 23.4211 23.582 23.9577 22.9181 23.9577V23.9643Z" fill="#5387C6"/>
<path d="M77.0752 29.9586C71.8041 29.9586 65.6392 27.0072 65.6392 18.6832C65.6392 9.48889 75.8528 0.660996 76.2865 0.287986C76.7335 -0.0981113 77.4039 -0.0981113 77.8508 0.287986C78.2846 0.660996 88.4982 9.48889 88.4982 18.6832C88.4982 27.0072 82.3398 29.9586 77.0621 29.9586H77.0752ZM77.0752 2.82707C74.7486 5.03241 68.0513 11.9691 68.0513 18.6832C68.0513 26.9222 74.9589 27.5635 77.0752 27.5635C79.1916 27.5635 86.0992 26.9222 86.0992 18.6832C86.0992 11.9691 79.4019 5.03241 77.0752 2.82707Z" fill="#5387C6"/>
<path d="M77.0753 23.9643C76.4115 23.9643 75.8726 23.4276 75.8726 22.7667C75.8726 22.1058 76.4115 21.5691 77.0753 21.5691C80.0855 21.5691 80.0855 20.1687 80.0855 18.6832C80.0855 17.6427 79.724 16.3863 79.0076 14.9466C78.7119 14.3511 78.955 13.6312 79.5531 13.3433C80.1512 13.0488 80.8742 13.2909 81.1634 13.8865C82.0441 15.6599 82.491 17.2697 82.491 18.6832C82.491 19.992 82.491 23.9708 77.0753 23.9708V23.9643Z" fill="#5387C6"/>
<path d="M49.9967 40.7431C43.8909 40.7431 36.7598 37.4449 36.7598 28.1524C36.7598 17.8194 48.7216 7.88556 49.2343 7.46674C49.6812 7.10028 50.3188 7.10028 50.7657 7.46674C51.2718 7.88556 63.2402 17.8194 63.2402 28.1524C63.2402 37.4449 56.1091 40.7431 50.0033 40.7431H49.9967ZM49.9967 9.98619C47.4072 12.3159 39.1653 20.3585 39.1653 28.1524C39.1653 37.6151 47.4532 38.348 49.9967 38.348C52.5402 38.348 60.8281 37.6151 60.8281 28.1524C60.8281 20.3585 52.5863 12.3159 49.9967 9.98619Z" fill="#5387C6"/>
<path d="M45.8496 33.9307C42.7803 32.3994 42.7803 29.3107 42.7803 28.1524C42.7803 25.5478 44.0751 22.4722 46.6252 19.0104C47.0195 18.4803 47.7688 18.3625 48.3077 18.7551C48.8401 19.1478 48.9584 19.9004 48.564 20.4304C46.3557 23.4341 45.1858 26.1041 45.1858 28.1589C45.1858 29.5004 45.3238 30.999 46.9275 31.7974C47.519 32.0919 47.7622 32.8117 47.4664 33.4072C47.2561 33.826 46.8026 34.1598 45.8496 33.9438V33.9307Z" fill="#5387C6"/>
<path d="M49.9967 69.4976C49.3329 69.4976 48.794 68.961 48.794 68.3001C48.794 67.6391 49.3329 67.1025 49.9967 67.1025C51.9882 67.1025 53.605 65.4927 53.605 63.5098C53.605 61.527 51.9882 59.9172 49.9967 59.9172C48.0053 59.9172 46.3884 61.527 46.3884 63.5098C46.3884 64.1708 45.8495 64.7074 45.1857 64.7074C44.5219 64.7074 43.9829 64.1708 43.9829 63.5098C43.9829 60.2051 46.6842 57.5155 50.0033 57.5155C53.3224 57.5155 56.0237 60.2051 56.0237 63.5098C56.0237 66.8146 53.3224 69.5042 50.0033 69.5042L49.9967 69.4976Z" fill="#5387C6"/>
<path d="M31.9421 62.3123C29.2869 62.3123 27.1311 60.1658 27.1311 57.522C27.1311 54.8783 29.2869 52.7318 31.9421 52.7318C34.5974 52.7318 36.7532 54.8783 36.7532 57.522C36.7532 60.1658 34.5974 62.3123 31.9421 62.3123ZM31.9421 55.1204C30.6145 55.1204 29.5366 56.1936 29.5366 57.5155C29.5366 58.8374 30.6145 59.9106 31.9421 59.9106C33.2698 59.9106 34.3477 58.8374 34.3477 57.5155C34.3477 56.1936 33.2698 55.1204 31.9421 55.1204Z" fill="#5387C6"/>
<path d="M68.0513 62.3123C65.396 62.3123 63.2402 60.1658 63.2402 57.522C63.2402 54.8783 65.396 52.7318 68.0513 52.7318C70.7066 52.7318 72.8623 54.8783 72.8623 57.522C72.8623 60.1658 70.7066 62.3123 68.0513 62.3123ZM68.0513 55.1204C66.7236 55.1204 65.6458 56.1936 65.6458 57.5155C65.6458 58.8374 66.7236 59.9106 68.0513 59.9106C69.3789 59.9106 70.4568 58.8374 70.4568 57.5155C70.4568 56.1936 69.3789 55.1204 68.0513 55.1204Z" fill="#5387C6"/>
<path d="M22.3136 11.9821C22.9779 11.9821 23.5164 11.446 23.5164 10.7846C23.5164 10.1232 22.9779 9.58704 22.3136 9.58704C21.6493 9.58704 21.1108 10.1232 21.1108 10.7846C21.1108 11.446 21.6493 11.9821 22.3136 11.9821Z" fill="#5387C6"/>
<path d="M77.6735 11.9821C78.3377 11.9821 78.8762 11.446 78.8762 10.7846C78.8762 10.1232 78.3377 9.58704 77.6735 9.58704C77.0092 9.58704 76.4707 10.1232 76.4707 10.7846C76.4707 11.446 77.0092 11.9821 77.6735 11.9821Z" fill="#5387C6"/>
<path d="M50.4503 35.2462C51.1146 35.2462 51.6531 34.71 51.6531 34.0486C51.6531 33.3872 51.1146 32.8511 50.4503 32.8511C49.7861 32.8511 49.2476 33.3872 49.2476 34.0486C49.2476 34.71 49.7861 35.2462 50.4503 35.2462Z" fill="#5387C6"/>
</g>
<defs>
<clipPath id="clip0_905_623">
<rect width="100" height="90" fill="white"/>
</clipPath>
</defs>
</svg>
