<svg width="100" height="116" viewBox="0 0 100 116" fill="none" xmlns="http://www.w3.org/2000/svg">
<g clip-path="url(#clip0_905_671)">
<path d="M23.1021 93.3584C23.549 93.7712 24.0157 94.171 24.4823 94.5642V88.0567H30.8773C31.574 88.0567 32.1392 87.4932 32.1392 86.7985C32.1392 86.1039 31.574 85.5403 30.8773 85.5403H23.2204C22.5237 85.5403 21.9585 86.1039 21.9585 86.7985V92.5654C22.3463 92.762 22.734 93.0242 23.1021 93.3649V93.3584Z" fill="#5387C6"/>
<path d="M69.8916 88.0502H75.5176V93.8892C76.2537 92.893 77.0687 92.0935 78.0414 91.4513V86.7919C78.0414 86.0973 77.4762 85.5337 76.7795 85.5337H69.8916C69.1949 85.5337 68.6296 86.0973 68.6296 86.7919C68.6296 87.4866 69.1949 88.0502 69.8916 88.0502Z" fill="#5387C6"/>
<path d="M71.883 98.5486C72.514 98.2799 72.974 97.8801 73.3487 97.4017H27.887C28.0118 97.5131 28.1367 97.618 28.2616 97.7294C28.9911 98.4044 29.3986 99.158 29.5761 99.9182H70.3319C70.7 99.3218 71.2126 98.8304 71.8896 98.5486H71.883Z" fill="#5387C6"/>
<path d="M37.7588 79.4195L35.3335 81.8377C33.4998 83.6661 33.4998 86.6282 35.3335 88.45C37.1673 90.2783 40.138 90.2783 41.9652 88.45C43.7989 86.6216 43.7989 83.6661 41.9652 81.8377L39.5399 79.4195C39.047 78.928 38.2451 78.928 37.7522 79.4195H37.7588ZM40.184 86.674C39.3362 87.5194 37.9691 87.5194 37.1212 86.674C36.2734 85.8287 36.2734 84.4656 37.1212 83.6202L38.6526 82.0933L40.184 83.6202C41.0319 84.4656 41.0319 85.8287 40.184 86.674Z" fill="#5387C6"/>
<path d="M49.1094 76.5622L46.6841 78.9804C44.8504 80.8088 44.8504 83.7709 46.6841 85.5927C48.5178 87.4145 51.4886 87.421 53.3157 85.5927C55.1495 83.7643 55.1495 80.8088 53.3157 78.9804L50.8905 76.5622C50.3976 76.0707 49.5957 76.0707 49.1028 76.5622H49.1094ZM51.5346 83.8167C50.6868 84.6621 49.3131 84.6621 48.4718 83.8167C47.624 82.9714 47.624 81.6017 48.4718 80.7629L50.0032 79.236L51.5346 80.7629C52.3759 81.6083 52.3759 82.9714 51.5346 83.8167Z" fill="#5387C6"/>
<path d="M60.4602 79.4195L58.035 81.8377C56.2012 83.6661 56.2012 86.6282 58.035 88.45C59.8687 90.2783 62.8394 90.2783 64.6666 88.45C66.5003 86.6216 66.5003 83.6661 64.6666 81.8377L62.2413 79.4195C61.7484 78.928 60.9466 78.928 60.4536 79.4195H60.4602ZM63.5164 85.1471C63.5164 85.7172 63.2863 86.2677 62.8789 86.674C62.031 87.5194 60.6639 87.5194 59.8161 86.674C58.9682 85.8287 58.9682 84.4656 59.8161 83.6202L61.3475 82.0933L62.8789 83.6202C63.2863 84.0265 63.5164 84.577 63.5164 85.1471Z" fill="#5387C6"/>
<path d="M82.7671 54.5235C82.7671 55.2182 83.3323 55.7818 84.029 55.7818C84.7257 55.7818 85.2909 55.2182 85.2909 54.5235V37.5308C85.2909 36.8362 84.7257 36.2726 84.029 36.2726C83.3323 36.2726 82.7671 36.8362 82.7671 37.5308V54.5235Z" fill="#5387C6"/>
<path d="M84.029 34.0443C84.7257 34.0443 85.2909 33.4808 85.2909 32.7861V30.4662C85.2909 29.7716 84.7257 29.208 84.029 29.208C83.3323 29.208 82.7671 29.7716 82.7671 30.4662V32.7861C82.7671 33.4808 83.3323 34.0443 84.029 34.0443Z" fill="#5387C6"/>
<path d="M37.5288 18.5983C37.9494 19.1553 38.7381 19.2667 39.2968 18.8473C39.8554 18.4279 39.9671 17.6415 39.5465 17.0845C38.2123 15.3086 38.8104 14.4304 39.8949 12.8314C41.137 11.003 42.8459 8.49312 39.5728 4.81672C39.1127 4.29901 38.3109 4.24658 37.7917 4.71186C37.2724 5.17715 37.2199 5.9701 37.6865 6.48781C39.6582 8.70282 38.9616 9.72514 37.8048 11.4224C36.6678 13.0935 35.1101 15.3806 37.5288 18.5983Z" fill="#5387C6"/>
<path d="M48.9912 14.201C49.4118 14.758 50.2005 14.8694 50.7592 14.4566C51.3178 14.0437 51.4296 13.2508 51.0155 12.6938C49.6813 10.9113 50.2794 10.0331 51.3638 8.44066C52.606 6.61229 54.3149 4.10237 51.0418 0.425969C50.5817 -0.0917419 49.7799 -0.144168 49.2607 0.321116C48.7414 0.786401 48.6889 1.57935 49.1555 2.09706C51.1272 4.31208 50.4306 5.33439 49.2738 7.0317C48.1368 8.70279 46.5791 10.9899 48.9978 14.2076L48.9912 14.201Z" fill="#5387C6"/>
<path d="M60.447 18.5983C60.8676 19.1553 61.6563 19.2667 62.215 18.8473C62.7736 18.4279 62.8853 17.6415 62.4647 17.0845C61.1305 15.3085 61.7286 14.4304 62.813 12.8314C64.0552 11.003 65.7641 8.49308 62.491 4.81668C62.0309 4.29241 61.2357 4.23999 60.7099 4.69217C60.1841 5.1509 60.1315 5.94385 60.585 6.46811C60.585 6.46811 60.5916 6.48122 60.5981 6.48122C62.5699 8.69623 61.8732 9.71855 60.7164 11.4159C59.5794 13.0869 58.0217 15.3741 60.4404 18.5917L60.447 18.5983Z" fill="#5387C6"/>
<path d="M41.8994 21.8028C41.8994 24.4241 44.0289 26.5539 46.6644 26.5539C49.3 26.5539 51.4295 24.4307 51.4295 21.8028C51.4295 19.1749 49.3 17.0516 46.6644 17.0516C44.0355 17.0516 41.906 19.1815 41.8994 21.8028ZM48.9057 21.8028C48.9057 23.0348 47.9001 24.0375 46.6644 24.0375C45.4288 24.0375 44.4232 23.0348 44.4232 21.8028C44.4232 20.5708 45.4288 19.5681 46.6644 19.5681C47.9001 19.5681 48.9057 20.5708 48.9057 21.8028Z" fill="#5387C6"/>
<path d="M33.1975 24.0375C31.4624 24.0375 30.0493 25.4399 30.0493 27.1765C30.0493 28.9066 31.4558 30.3155 33.1975 30.3155C34.9327 30.3155 36.3457 28.9131 36.3457 27.1765C36.3457 25.4464 34.9327 24.0375 33.1975 24.0375ZM33.1975 27.7991C32.8558 27.7991 32.5731 27.5238 32.5731 27.1765C32.5731 26.8357 32.8492 26.5539 33.1975 26.5539C33.5393 26.5539 33.8219 26.8292 33.8219 27.1765C33.8219 27.5173 33.5459 27.7991 33.1975 27.7991Z" fill="#5387C6"/>
<path d="M66.8682 31.1217C68.6033 31.1217 70.0164 29.7193 70.0164 27.9827C70.0164 26.2526 68.6099 24.8436 66.8682 24.8436C65.1331 24.8436 63.72 26.246 63.72 27.9827C63.72 29.7127 65.1331 31.1217 66.8682 31.1217ZM66.8682 27.3601C67.2099 27.3601 67.4926 27.6353 67.4926 27.9827C67.4926 28.33 67.2165 28.6052 66.8682 28.6052C66.5264 28.6052 66.2438 28.33 66.2438 27.9827C66.2438 27.6419 66.5198 27.3601 66.8682 27.3601Z" fill="#5387C6"/>
<path d="M57.3579 29.326C57.3579 28.1857 56.4312 27.2617 55.2876 27.2617C54.144 27.2617 53.2173 28.1857 53.2173 29.326C53.2173 30.4663 54.144 31.3903 55.2876 31.3903C56.4312 31.3903 57.3579 30.4663 57.3579 29.326ZM54.8341 29.326C54.8341 29.077 55.0379 28.8738 55.2876 28.8738C55.5374 28.8738 55.7411 29.077 55.7411 29.326C55.7411 29.575 55.5374 29.7782 55.2876 29.7782C55.0379 29.7782 54.8341 29.575 54.8341 29.326Z" fill="#5387C6"/>
<path d="M20.2893 54.7857C19.5926 54.7857 19.0273 55.3492 19.0273 56.0439V64.3535C19.0273 69.0194 22.8197 72.8072 27.5058 72.8072H72.5009C77.1805 72.8072 80.9794 69.026 80.9794 64.3535V25.1189C80.9794 24.4242 80.4141 23.8606 79.7175 23.8606C79.7043 23.8606 79.6912 23.8606 79.678 23.8606C78.9813 23.8999 78.4424 24.4766 78.4555 25.1713V37.4915C76.4247 37.7143 75.1759 38.4679 74.052 39.1429C72.8492 39.8703 71.8042 40.4995 69.6945 40.4995C67.5847 40.4995 66.5988 39.8769 65.4421 39.1495C64.1407 38.3369 62.6751 37.4194 59.8489 37.4194C57.0227 37.4194 55.5505 38.3369 54.2557 39.1495C53.099 39.8703 52.1 40.4995 50.0034 40.4995C47.9067 40.4995 46.9077 39.8769 45.751 39.1495C44.4496 38.3369 42.984 37.4194 40.1578 37.4194C37.3316 37.4194 35.8594 38.3369 34.5646 39.1495C33.4079 39.8703 32.4089 40.4995 30.3123 40.4995C28.2156 40.4995 27.1641 39.8703 25.9613 39.1429C24.844 38.4679 23.5952 37.7143 21.5643 37.4915V25.1713C21.5775 24.4766 21.0385 23.8999 20.3418 23.8606C19.6452 23.841 19.0602 24.3849 19.0405 25.0795C19.0405 25.0926 19.0405 25.1058 19.0405 25.1189V45.1392C19.0405 45.8338 19.6057 46.3974 20.3024 46.3974C20.9991 46.3974 21.5643 45.8338 21.5643 45.1392V40.0342C22.8788 40.2308 23.7201 40.7354 24.6534 41.299C25.9876 42.105 27.4992 43.0225 30.3188 43.0225C33.1384 43.0225 34.6172 42.105 35.912 41.2924C37.0688 40.5715 38.0678 39.9424 40.1644 39.9424C42.261 39.9424 43.26 40.565 44.4168 41.2924C45.7115 42.105 47.1838 43.0225 50.0099 43.0225C52.8361 43.0225 54.3083 42.105 55.6031 41.2924C56.7598 40.5715 57.7589 39.9424 59.8555 39.9424C61.9521 39.9424 62.9511 40.565 64.1079 41.2924C65.4092 42.105 66.8749 43.0225 69.701 43.0225C72.5272 43.0225 74.0257 42.105 75.3665 41.299C76.2998 40.7354 77.141 40.2308 78.4621 40.0342V64.3535C78.4621 67.6301 75.8003 70.2908 72.5075 70.2908H27.4992C24.213 70.2908 21.5446 67.6367 21.5446 64.3535V56.0439C21.5446 55.3492 20.9794 54.7857 20.2827 54.7857H20.2893Z" fill="#5387C6"/>
<path d="M99.0074 61.0375C98.1596 59.0125 96.4968 57.4266 94.9391 55.9915L90.3647 51.6401C89.1225 50.4474 87.177 48.6059 85.2973 46.8365C85.2973 46.8824 85.3104 46.9282 85.317 46.9741C85.317 47.0986 85.317 47.2231 85.3104 47.3477C87.0061 49.1433 88.7281 50.9585 89.8783 52.1316C91.3111 53.6716 95.0443 57.4463 96.3456 58.9667C99.4872 62.8331 99.2506 68.9146 95.6883 72.414C83.9565 83.8168 71.2848 96.2025 59.6844 107.736L57.4432 109.958C55.5569 112.062 52.8622 113.418 49.9966 113.379C47.4268 113.398 44.9029 112.343 43.1087 110.515C42.7669 110.187 40.6834 108.09 40.3088 107.736L31.3439 98.8566C25.3367 92.9652 19.3624 87.0476 13.3223 81.1955L4.30484 72.4075C1.50497 69.6289 0.67027 65.1792 2.16222 61.529C2.88519 59.5892 4.30484 58.1606 5.75078 56.6861L10.1149 52.1316C12.2838 49.8576 16.6742 45.2899 18.8037 42.9832C16.5033 45.1261 11.896 49.4709 9.62196 51.6466L5.04753 55.998C3.48986 57.4332 1.82702 59.0191 0.979176 61.0375C-0.893976 65.1399 -0.0527007 70.2842 3.0495 73.5871C5.98739 76.6671 8.93186 79.6161 11.8697 82.6437C17.739 88.6662 23.6739 94.6297 29.5825 100.619L38.4882 109.558L40.7163 111.793C43.0561 114.394 46.4606 116.039 49.99 116.007C53.5194 116.046 56.924 114.394 59.2638 111.793L61.4918 109.558C73.2302 97.7753 85.3959 85.5272 96.9305 73.6002C100.039 70.2908 100.867 65.153 99.0009 61.0441L99.0074 61.0375Z" fill="#1E1E1E"/>
</g>
<defs>
<clipPath id="clip0_905_671">
<rect width="100" height="116" fill="white"/>
</clipPath>
</defs>
</svg>
