<svg width="100" height="93" viewBox="0 0 100 93" fill="none" xmlns="http://www.w3.org/2000/svg">
<g clip-path="url(#clip0_905_650)">
<path d="M36.7598 36.1817C36.7598 35.5164 36.2209 34.9763 35.557 34.9763C32.9675 34.9763 30.4305 35.7009 28.2353 37.0841C26.8354 38.0129 25.2054 38.5398 23.5229 38.5925C21.8403 38.5398 20.2103 38.0129 18.8104 37.0841C16.9833 35.9512 14.9261 35.253 12.79 35.0356C12.1262 34.9763 11.5413 35.4703 11.4821 36.129C11.423 36.7943 11.9159 37.3805 12.5731 37.4398C14.374 37.6308 16.1091 38.2302 17.6471 39.1985C19.3954 40.338 21.4328 40.9638 23.5163 41.0099C25.5998 40.9638 27.6372 40.338 29.3855 39.1985C31.2258 38.0129 33.3618 37.3871 35.5505 37.3871C36.2143 37.3871 36.7532 36.847 36.7532 36.1817H36.7598Z" fill="#5387C6"/>
<path d="M87.2034 35.0356C85.0674 35.253 83.0102 35.9512 81.1831 37.0841C78.3635 39.0931 74.5777 39.0931 71.7581 37.0841C69.5629 35.7075 67.026 34.9763 64.443 34.9763C63.7792 34.9763 63.2402 35.5164 63.2402 36.1817C63.2402 36.847 63.7792 37.3871 64.443 37.3871C66.6316 37.3871 68.7677 38.0129 70.608 39.1985C74.1505 41.6093 78.8038 41.6093 82.3464 39.1985C83.8778 38.2302 85.6129 37.6242 87.4137 37.4332C88.0776 37.3739 88.5639 36.7877 88.5048 36.1224C88.4456 35.4572 87.8607 34.9697 87.1969 35.029L87.2034 35.0356Z" fill="#5387C6"/>
<path d="M60.828 10.8552C60.828 4.86111 55.9776 0 49.9966 0C44.0157 0 39.1652 4.86111 39.1652 10.8552V47.1356C33.8875 53.1099 34.4462 62.2459 40.4074 67.5352C42.6223 69.4981 45.3893 70.7364 48.3338 71.0723C52.435 71.5334 56.5428 70.2292 59.6253 67.4759C65.5405 62.1866 66.0794 53.0967 60.828 47.1422V10.8552ZM62.0308 56.6866C62.0439 63.3459 56.6677 68.7603 50.0229 68.7735C43.3781 68.7867 37.9756 63.3986 37.9624 56.7393C37.9624 53.65 39.1323 50.6794 41.2421 48.4398C41.4524 48.2159 41.5707 47.9195 41.5707 47.6099V24.1277H43.9762C44.6401 24.1277 45.179 23.5876 45.179 22.9223C45.179 22.257 44.6401 21.7169 43.9762 21.7169H41.5707V18.1007H46.3818C47.0456 18.1007 47.5845 17.5606 47.5845 16.8953C47.5845 16.23 47.0456 15.6899 46.3818 15.6899H41.5707V12.0737H43.9762C44.6401 12.0737 45.179 11.5336 45.179 10.8683C45.179 10.2031 44.6401 9.66294 43.9762 9.66294H41.6627C42.3594 5.05213 46.6512 1.88384 51.252 2.57547C55.3466 3.19463 58.3896 6.71202 58.4159 10.8683V47.6165C58.4159 47.9261 58.5342 48.2225 58.7446 48.4464C60.8543 50.6728 62.0308 53.6303 62.0242 56.6998L62.0308 56.6866Z" fill="#5387C6"/>
<path d="M54.8144 49.7704V28.9493C54.8144 26.2816 52.6587 24.1277 50.0034 24.1277C47.3481 24.1277 45.1923 26.2882 45.1923 28.9493V49.7638C41.3737 52.4249 40.4339 57.6878 43.0891 61.5148C44.4628 63.4908 46.6054 64.7818 48.9846 65.0717C49.3133 65.1112 49.6353 65.1244 49.9639 65.1244C54.6172 65.1375 58.3964 61.3633 58.4096 56.7063C58.4161 53.9398 57.0753 51.3512 54.8144 49.7638V49.7704ZM53.9994 61.192C52.7112 62.3513 50.9827 62.8914 49.2607 62.6806C46.612 62.3381 44.5022 60.3028 44.0487 57.668C43.6478 55.1914 44.8177 52.7279 46.9866 51.4764C47.3612 51.259 47.5913 50.8638 47.5913 50.4291V28.9493C47.5913 27.6187 48.6692 26.5385 49.9968 26.5385C51.3244 26.5385 52.4023 27.6187 52.4023 28.9493V50.4291C52.4023 50.8572 52.6324 51.259 53.007 51.4698C55.8792 53.1297 56.8716 56.8051 55.2153 59.6902C54.8933 60.2501 54.4858 60.7573 53.9994 61.1854V61.192Z" fill="#5387C6"/>
<path d="M18.7119 16.8888H23.5229V30.1547C23.5229 30.82 24.0619 31.3601 24.7257 31.3601H31.9488C32.6126 31.3601 33.1516 30.82 33.1516 30.1547V4.82161C33.1516 4.15633 32.6126 3.61621 31.9488 3.61621H27.1378C26.7697 3.61621 26.4148 3.78747 26.1913 4.08388L17.7654 14.939C17.358 15.466 17.45 16.2235 17.9758 16.6319C18.1861 16.7965 18.449 16.8888 18.7119 16.8888ZM27.7227 6.03359H30.7461V28.9493H25.935V15.6834C25.935 15.0181 25.3961 14.478 24.7323 14.478H21.1766L27.7293 6.03359H27.7227Z" fill="#5387C6"/>
<path d="M69.254 31.3601H76.4771C77.141 31.3601 77.6799 30.82 77.6799 30.1547V16.8888H82.491C83.1548 16.8888 83.6937 16.3486 83.6937 15.6834C83.6937 15.4133 83.6017 15.1564 83.4374 14.939L75.0115 4.08388C74.7814 3.78747 74.4331 3.61621 74.0585 3.61621H69.2474C68.5836 3.61621 68.0447 4.15633 68.0447 4.82161V30.1481C68.0447 30.8134 68.5836 31.3535 69.2474 31.3535L69.254 31.3601ZM70.4568 6.03359H73.4801L80.0328 14.478H76.4771C75.8133 14.478 75.2744 15.0181 75.2744 15.6834V28.9493H70.4633V6.03359H70.4568Z" fill="#5387C6"/>
<path d="M25.3303 45.8314C24.6664 45.8314 24.1275 46.3715 24.1275 47.0368C24.1275 47.7021 24.6664 48.2422 25.3303 48.2422C26.9931 48.2422 28.3404 49.5925 28.3404 51.259C28.3404 52.9255 26.9931 54.2758 25.3303 54.2758C23.6674 54.2758 22.3201 52.9255 22.3201 51.259C22.3201 50.5937 21.7811 50.0536 21.1173 50.0536C20.4535 50.0536 19.9146 50.5937 19.9146 51.259C19.9146 54.256 22.3398 56.6866 25.3303 56.6866C28.3207 56.6866 30.746 54.256 30.746 51.259C30.746 48.262 28.3207 45.8314 25.3303 45.8314Z" fill="#5387C6"/>
<path d="M74.6696 61.5148C71.6791 61.5148 69.2539 63.9453 69.2539 66.9423C69.2539 69.9394 71.6791 72.3699 74.6696 72.3699C75.3334 72.3699 75.8724 71.8298 75.8724 71.1645C75.8724 70.4993 75.3334 69.9591 74.6696 69.9591C73.0068 69.9591 71.6594 68.6088 71.6594 66.9423C71.6594 65.2759 73.0068 63.9256 74.6696 63.9256C76.3324 63.9256 77.6798 65.2759 77.6798 66.9423C77.6798 67.6076 78.2187 68.1477 78.8826 68.1477C79.5464 68.1477 80.0853 67.6076 80.0853 66.9423C80.0853 63.9453 77.6601 61.5148 74.6696 61.5148Z" fill="#5387C6"/>
<path d="M22.0243 68.1873C22.5173 68.5496 22.9576 68.9975 23.306 69.5047C23.5557 69.867 23.7989 70.2292 24.0552 70.5849C24.0881 70.631 24.1209 70.6706 24.1472 70.7167C24.2853 70.855 24.4101 70.9999 24.5416 71.1448C26.6711 70.934 28.3339 69.1358 28.3339 66.9424C28.3339 64.6106 26.4476 62.7202 24.1209 62.7202C22.2084 62.7202 20.5981 63.9981 20.0854 65.7436C20.9859 66.3166 21.7023 67.1795 22.0243 68.1873ZM24.1275 65.131C25.1265 65.131 25.9349 65.9412 25.9349 66.9424C25.9349 67.9436 25.1265 68.7538 24.1275 68.7538C23.1285 68.7538 22.3201 67.9436 22.3201 66.9424C22.3201 65.9412 23.1285 65.131 24.1275 65.131Z" fill="#5387C6"/>
<path d="M77.6798 51.259C77.6798 48.9273 75.7935 47.0369 73.4669 47.0369C71.1402 47.0369 69.2539 48.9273 69.2539 51.259C69.2539 53.5908 71.1402 55.4812 73.4669 55.4812C75.7935 55.4812 77.6798 53.5908 77.6798 51.259ZM71.6594 51.259C71.6594 50.2578 72.4678 49.4477 73.4669 49.4477C74.4659 49.4477 75.2743 50.2578 75.2743 51.259C75.2743 52.2602 74.4659 53.0704 73.4669 53.0704C72.4678 53.0704 71.6594 52.2602 71.6594 51.259Z" fill="#5387C6"/>
<path d="M18.8104 19.6091C16.6743 21.9343 12.2905 26.5188 10.1216 28.8044L5.75747 33.3823C4.31153 34.8709 2.89187 36.3068 2.1689 38.25C0.670381 41.9188 1.51166 46.3913 4.31153 49.1842L13.3289 58.0172C19.369 63.8992 25.3434 69.8538 31.3506 75.7688L40.3155 84.694C40.6901 85.0497 42.7736 87.1575 43.1153 87.4868C44.9162 89.3245 47.4334 90.385 50.0033 90.3653C52.8623 90.4048 55.5636 89.0479 57.4499 86.9269L59.6911 84.694C71.2915 73.1011 83.9632 60.6453 95.695 49.1908C99.2573 45.6734 99.4939 39.5608 96.3523 35.6745C95.0509 34.1463 91.3178 30.3523 89.885 28.8044C87.6898 26.5451 83.3585 21.9014 81.1962 19.6025C83.4965 21.7564 88.1038 26.1235 90.3779 28.3104L94.9523 32.6841C96.51 34.1266 98.1729 35.7206 99.0207 37.7559C100.894 41.8859 100.059 47.05 96.9504 50.3764C85.4157 62.3645 73.2501 74.6754 61.5117 86.5185L59.2836 88.7647C56.9438 91.3796 53.5393 93.0395 50.0098 93C46.4804 93.033 43.0759 91.3796 40.7361 88.7647L38.508 86.5185L29.6024 77.534C23.7003 71.5136 17.7588 65.5262 11.8896 59.4663C8.95168 56.4297 6.00722 53.459 3.06933 50.3632C-0.0460168 47.0434 -0.887292 41.8793 0.992432 37.7559C1.84685 35.7206 3.50311 34.1332 5.06079 32.6906L9.63522 28.317C11.9093 26.1301 16.51 21.763 18.8169 19.6091H18.8104Z" fill="#1E1E1E"/>
</g>
<defs>
<clipPath id="clip0_905_650">
<rect width="100" height="93" fill="white"/>
</clipPath>
</defs>
</svg>
