<svg width="224" height="51" viewBox="0 0 224 51" fill="none" xmlns="http://www.w3.org/2000/svg">
<path d="M66.8394 25.3324L51.746 40.1628L36.6448 25.3324L40.8954 21.158L51.746 31.8065L58.3073 25.3627L58.9565 24.7252L62.5889 21.158L66.8394 25.3324Z" fill="#5387C6"/>
<path d="M55.7261 1.94062C54.6596 0.893231 53.2453 0.316406 51.7383 0.316406C50.2312 0.316406 48.8169 0.893231 47.7504 1.94062L27.9117 21.4161C25.7169 23.5792 25.7169 27.0856 27.9117 29.2487L47.7427 48.7318C48.8401 49.8095 50.2853 50.3484 51.7305 50.3484C53.1757 50.3484 54.6132 49.8095 55.7184 48.7318L75.5493 29.2563C77.7442 27.0932 77.7442 23.5867 75.5493 21.4237L55.7261 1.94062ZM51.7383 40.1856L36.6139 25.3324L40.8799 21.1428L41.135 20.8924L51.746 10.4792L66.8704 25.3324L51.746 40.1856H51.7383ZM11.0717 39.3204H25.1605V47.4719H0.321533V4.1189H11.0717V39.3204ZM105.126 23.0175H128.519V32.8387C126.255 40.3147 118.898 47.783 107.266 47.783C94.0587 47.783 84.7538 38.7056 84.7538 25.7347C84.7538 12.7637 93.9969 3.62556 107.205 3.62556C117.769 3.62556 125.444 8.93842 127.77 17.8261H115.884C114.245 14.9268 111.231 13.3785 107.205 13.3785C100.288 13.3785 95.6971 18.198 95.6971 25.7271C95.6971 33.7571 100.35 38.4476 108.086 38.4476C113.434 38.4476 117.143 35.6697 118.774 30.7895H105.126V23.0099V23.0175ZM159.641 3.49653C147.129 3.49653 136.943 12.6347 136.943 25.6664C136.943 38.698 147.129 47.8969 159.641 47.8969C172.154 47.8969 182.216 38.698 182.216 25.6664C182.216 12.6347 172.216 3.49653 159.641 3.49653ZM159.641 38.2654C152.47 38.2654 147.949 33.2637 147.949 25.6664C147.949 18.069 152.477 13.0673 159.641 13.0673C166.806 13.0673 171.273 17.9475 171.273 25.6664C171.273 33.3852 166.682 38.2654 159.641 38.2654ZM223.679 34.5616C223.679 41.8478 217.89 47.9045 207.58 47.9045C198.082 47.9045 190.663 43.2747 190.354 34.5009H201.8C202.117 37.8328 204.25 39.4418 207.271 39.4418C210.293 39.4418 212.426 37.9011 212.426 35.3661C212.426 27.3361 190.354 31.6623 190.478 16.2854C190.478 8.07319 197.333 3.50412 206.576 3.50412C215.819 3.50412 222.674 8.19462 223.114 16.4751H211.483C211.298 13.6972 209.281 12.0275 206.39 11.9668C203.809 11.906 201.861 13.2039 201.861 15.921C201.861 23.4577 223.679 20.0575 223.679 34.5692V34.5616ZM51.746 17.6363L58.9643 24.7252L51.746 31.8141L44.5277 24.7252L51.746 17.6363Z" fill="white"/>
</svg>
