<svg width="196" height="45" viewBox="0 0 196 45" fill="none" xmlns="http://www.w3.org/2000/svg">
<path d="M58.3707 22.5L45.1259 35.8389L31.8743 22.5L35.6042 18.7454L45.1259 28.323L50.8836 22.5273L51.4532 21.9539L54.6407 18.7454L58.3707 22.5Z" fill="#5387C6"/>
<path d="M48.6185 1.46086C47.6826 0.518811 46.4416 0 45.1191 0C43.7967 0 42.5556 0.518811 41.6197 1.46086L24.2109 18.9775C22.2849 20.9231 22.2849 24.0769 24.2109 26.0225L41.613 43.546C42.576 44.5153 43.8442 45 45.1123 45C46.3805 45 47.6419 44.5153 48.6117 43.546L66.0138 26.0293C67.9398 24.0837 67.9398 20.9299 66.0138 18.9844L48.6185 1.46086ZM45.1191 35.8594L31.8472 22.5L35.5907 18.7318L35.8145 18.5065L45.1259 9.14062L58.3978 22.5L45.1259 35.8594H45.1191ZM9.43344 35.0812H21.7966V42.4128H0V3.42005H9.43344V35.0812ZM91.9676 20.4179H112.496V29.2514C110.509 35.9754 104.053 42.6927 93.8462 42.6927C82.2561 42.6927 74.0909 34.5282 74.0909 22.8618C74.0909 11.1954 82.2019 2.97634 93.7919 2.97634C103.063 2.97634 109.797 7.75485 111.838 15.7486H101.408C99.9701 13.1409 97.3252 11.7483 93.7919 11.7483C87.7222 11.7483 83.6938 16.0831 83.6938 22.855C83.6938 30.0774 87.7765 34.2961 94.565 34.2961C99.258 34.2961 102.513 31.7976 103.944 27.4082H91.9676V20.4111V20.4179ZM139.806 2.86029C128.827 2.86029 119.888 11.0793 119.888 22.8004C119.888 34.5214 128.827 42.7951 139.806 42.7951C150.786 42.7951 159.616 34.5214 159.616 22.8004C159.616 11.0793 150.84 2.86029 139.806 2.86029ZM139.806 34.1323C133.513 34.1323 129.545 29.6336 129.545 22.8004C129.545 15.9671 133.52 11.4684 139.806 11.4684C146.093 11.4684 150.013 15.8579 150.013 22.8004C150.013 29.7429 145.984 34.1323 139.806 34.1323ZM196 30.801C196 37.3544 190.92 42.8019 181.874 42.8019C173.539 42.8019 167.028 38.6377 166.757 30.7464H176.801C177.079 33.7432 178.951 35.1904 181.602 35.1904C184.254 35.1904 186.126 33.8046 186.126 31.5246C186.126 24.3022 166.757 28.1933 166.865 14.3629C166.865 6.97664 172.881 2.86711 180.992 2.86711C189.103 2.86711 195.118 7.08586 195.505 14.5335H185.298C185.136 12.035 183.366 10.5332 180.829 10.4786C178.564 10.424 176.855 11.5913 176.855 14.0352C176.855 20.8139 196 17.7556 196 30.8078V30.801ZM45.1259 15.578L51.4601 21.9539L45.1259 28.3298L38.7917 21.9539L45.1259 15.578Z" fill="#1D1D1B"/>
</svg>
