<svg width="236" height="67" viewBox="0 0 236 67" fill="none" xmlns="http://www.w3.org/2000/svg">
<g clip-path="url(#clip0_572_1398)">
<path d="M217.503 38.51C220.757 38.51 221.355 36.9608 222.094 33.4762C223.069 28.867 222.485 28.172 219.695 28.172C216.596 28.172 216.152 28.7898 215.162 33.4762C214.274 37.6606 214.631 38.51 217.503 38.51ZM214.139 53.3268H37.9686L33.219 48.4378L214.129 48.486C216.996 48.486 218.522 48.0227 219.125 45.1945L220.023 40.9763C218.401 43.4908 216.099 44.3016 213.545 44.3016C206.344 44.3016 206.653 39.929 207.879 34.1567C209.278 27.5736 210.9 23.7415 217.909 23.7415C220.776 23.7415 222.721 24.4413 222.866 27.5784L223.629 23.9779H230.29L226.158 43.4184C224.546 51.0054 221.963 53.3317 214.139 53.3317V53.3268Z" fill="url(#paint0_linear_572_1398)"/>
<path d="M37.6259 15.416H52.623C58.2945 15.416 61.4175 16.4826 60.0949 22.723C59.3275 26.3428 58.1014 28.698 54.2013 29.3061L54.1338 29.6102C58.3042 29.8756 58.4876 32.4239 57.7249 36.0051C56.2383 43.0081 52.7581 43.9588 46.7101 43.9588H31.5586L37.6211 15.4111L37.6259 15.416ZM40.5027 37.7232H46.2467C48.7229 37.7232 49.8717 37.1537 50.364 34.8323C50.866 32.4722 50.0599 32.1295 47.5837 32.1295H41.6853L40.4979 37.7232H40.5027ZM42.8148 26.8399H48.2933C50.9577 26.8399 51.7059 26.3814 52.1885 24.0985C52.5506 22.3852 52.4202 21.7384 50.3061 21.6612H43.9105L42.81 26.8399H42.8148Z" fill="#F29100"/>
<path d="M80.7634 33.9925C79.0161 42.2117 76.8826 44.1905 68.5852 44.1905C60.2879 44.1905 59.0812 41.9801 60.7851 33.9925C62.5179 25.8119 64.5934 23.7559 72.9294 23.7559C81.2654 23.7559 82.559 25.5416 80.7634 33.9925ZM67.3254 33.9925C66.4035 38.3314 66.6062 39.1711 69.7678 39.1711C72.9294 39.1711 73.2914 38.3362 74.2133 33.9925C75.1353 29.6536 75.0194 28.7752 71.9737 28.7752C68.9279 28.7752 68.2474 29.6536 67.3254 33.9925Z" fill="#F29100"/>
<path d="M88.1245 43.9638H81.5745L85.8221 23.9828H92.3673L88.1245 43.9638ZM93.1203 20.4451H86.5703L87.6418 15.4209H94.187L93.1203 20.4451Z" fill="#F29100"/>
<path d="M98.5166 43.9638H91.9666L98.0339 15.4209H104.579L98.5166 43.9638Z" fill="#F29100"/>
<path d="M122.81 37.3082C122.173 40.3102 120.817 42.0284 118.891 43.0178C116.975 43.9686 114.494 44.1954 111.597 44.1954C103.715 44.1954 102.397 41.4541 103.981 33.9974C105.617 26.309 107.91 23.7607 115.937 23.7607C123.438 23.7607 125.238 25.8554 123.51 33.9974L123.274 35.0978H110.294C109.546 38.6017 109.865 39.6297 112.568 39.6297C114.585 39.6297 115.927 39.4029 116.371 37.3082H122.805H122.81ZM117.501 31.4829C118.128 28.5147 117.066 28.3264 114.856 28.3264C112.534 28.3264 111.699 28.8573 111.066 31.4829H117.501Z" fill="#F29100"/>
<path d="M137.918 31.671C138.222 30.2618 138.628 28.7029 136.837 28.7029C134.858 28.7029 134.071 30.2666 133.724 31.8979L131.175 43.8865H124.63L128.873 23.9055H135.23L134.607 26.8351H134.872C136.234 24.5522 138.135 23.6738 140.568 23.6738C145.134 23.6738 144.724 27.4046 143.947 31.0581L143.619 32.617H137.715L137.918 31.6662V31.671Z" fill="#F29100"/>
<path d="M151.578 43.9638H143.966L150.029 15.4209H162.091L163.732 33.3459H163.998L172.985 15.4209H185.352L179.289 43.9638H171.677L177.088 22.0812H176.823L164.939 43.9638H158.35L155.696 22.0812H155.464L151.578 43.9638Z" fill="#E20613"/>
<path d="M196.97 40.9954H196.743C195.667 43.7368 192.602 44.1905 190.314 44.1905C185.743 44.1905 183.315 43.0901 184.401 37.9886C185.419 33.1913 188.248 31.7048 192.969 31.7048C194.832 31.7048 197.694 31.6662 197.931 33.9538H198.239L198.91 30.7926C199.306 28.9248 199.441 27.7472 196.589 27.7472C194.948 27.7472 193.842 28.1285 193.461 29.919H186.911C188.229 23.7124 192.751 23.751 197.438 23.751C204.138 23.751 206.773 24.5908 205.311 31.4779L202.661 43.9636H196.111L196.97 40.9954ZM190.989 37.7956C190.526 39.9626 192.389 39.9626 193.384 39.9626C196.125 39.9626 197.033 39.6199 197.482 37.5301C197.834 35.8554 196.425 35.7058 194.291 35.7058C192.693 35.7058 191.38 35.9712 190.994 37.7956" fill="#E20613"/>
<path d="M68.4454 64.4853C66.9491 64.5915 65.4334 64.6446 63.9033 64.6446C39.074 64.6446 18.946 50.3538 18.946 32.7329C18.946 15.112 39.074 0.816406 63.9033 0.816406C65.4383 0.816406 66.9539 0.869496 68.5516 0.975675C44.1036 1.18803 24.2556 15.3967 24.2556 32.7281C24.2556 50.0594 44.1036 64.2681 68.4502 64.4853H68.4454Z" fill="url(#paint1_linear_572_1398)"/>
<path d="M59.4431 64.4853C57.9468 64.5915 56.4312 64.6446 54.8962 64.6446C30.0669 64.6446 9.93896 50.3538 9.93896 32.7329C9.93896 15.112 30.0669 0.816406 54.8962 0.816406C56.4312 0.816406 57.9468 0.869496 59.5445 0.975675C35.0965 1.18803 15.2437 15.3967 15.2437 32.7281C15.2437 50.0594 35.0917 64.2681 59.4383 64.4853H59.4431Z" fill="url(#paint2_linear_572_1398)"/>
<path d="M50.1033 64.4853C48.607 64.5915 47.0913 64.6446 45.5564 64.6446C20.7271 64.6446 0.599121 50.3538 0.599121 32.7281C0.599121 15.1023 20.7271 0.816406 45.5564 0.816406C47.0913 0.816406 48.607 0.869496 50.2047 0.975675C25.7567 1.18803 5.90383 15.3967 5.90383 32.7281C5.90383 50.0594 25.7518 64.2681 50.0985 64.4853H50.1033Z" fill="url(#paint3_linear_572_1398)"/>
<path d="M230.439 25.6189C230.584 25.2955 230.777 25.0156 231.018 24.7743C231.265 24.5378 231.549 24.3496 231.878 24.2144C232.201 24.0793 232.548 24.0117 232.915 24.0117C233.282 24.0117 233.625 24.0793 233.953 24.2144C234.276 24.3496 234.561 24.5378 234.803 24.7743C235.044 25.0108 235.237 25.2955 235.382 25.6189C235.527 25.9422 235.599 26.2946 235.599 26.671C235.599 27.0475 235.527 27.4143 235.382 27.7376C235.242 28.0658 235.049 28.3458 234.803 28.5871C234.561 28.8284 234.276 29.0166 233.953 29.1469C233.63 29.2821 233.282 29.3448 232.915 29.3448C232.548 29.3448 232.201 29.2772 231.878 29.1469C231.549 29.0118 231.265 28.8284 231.018 28.5871C230.772 28.3458 230.579 28.061 230.439 27.7376C230.299 27.4143 230.222 27.0523 230.222 26.671C230.222 26.2897 230.294 25.9422 230.439 25.6189ZM230.878 27.5784C230.989 27.8583 231.144 28.0996 231.342 28.3023C231.54 28.505 231.771 28.6691 232.042 28.785C232.312 28.9008 232.602 28.9587 232.92 28.9587C233.239 28.9587 233.519 28.9008 233.784 28.785C234.05 28.6691 234.281 28.5099 234.479 28.3023C234.677 28.0948 234.832 27.8583 234.947 27.5784C235.058 27.2984 235.116 26.9944 235.116 26.6662C235.116 26.338 235.058 26.0484 234.947 25.7733C234.832 25.4982 234.677 25.2569 234.479 25.0542C234.281 24.8515 234.05 24.6922 233.784 24.5764C233.514 24.4606 233.229 24.4026 232.92 24.4026C232.611 24.4026 232.312 24.4606 232.042 24.5764C231.771 24.6922 231.54 24.8515 231.342 25.0542C231.144 25.2569 230.989 25.4982 230.878 25.7733C230.767 26.0484 230.709 26.3477 230.709 26.6662C230.709 26.9847 230.767 27.2984 230.878 27.5784ZM233.084 25.1169C233.456 25.1169 233.731 25.1893 233.91 25.339C234.088 25.4886 234.175 25.7106 234.175 26.0098C234.175 26.2897 234.098 26.4973 233.939 26.6276C233.784 26.7579 233.586 26.8351 233.355 26.8592L234.248 28.2396H233.726L232.877 26.8979H232.36V28.2396H231.873V25.1169H233.079H233.084ZM232.872 26.5021C232.978 26.5021 233.084 26.5021 233.181 26.4924C233.277 26.4828 233.364 26.4683 233.441 26.4345C233.514 26.4008 233.577 26.3477 233.625 26.2801C233.668 26.2125 233.692 26.116 233.692 25.9905C233.692 25.8843 233.673 25.8023 233.635 25.7395C233.591 25.6768 233.543 25.6285 233.475 25.5948C233.412 25.561 233.335 25.5417 233.253 25.5272C233.171 25.5127 233.089 25.5079 233.007 25.5079H232.365V26.5021H232.872Z" fill="#E20613"/>
<path d="M73.4845 61.7489C73.4845 63.6939 72.4999 64.7364 70.796 64.7364C69.0921 64.7364 68.1074 63.6939 68.1074 61.7489V57.6899H69.1018V61.6186C69.1018 62.9506 69.5169 63.8628 70.8008 63.8628C72.0847 63.8628 72.4999 62.9506 72.4999 61.6186V57.6899H73.4942V61.7489H73.4845Z" fill="#E30520"/>
<path d="M75.0483 57.1687H75.9799V64.6157H75.0483V57.1687Z" fill="#E30520"/>
<path d="M80.1408 60.3058H78.7989V63.0761C78.7989 63.6649 79.1561 63.9786 79.5809 63.9786C79.8705 63.9786 80.078 63.8869 80.218 63.8001V64.5964C80.0105 64.6543 79.7209 64.7364 79.4264 64.7364C78.4659 64.7364 77.8673 64.2779 77.8673 63.2692V60.3106H76.7234V59.5577H77.8673V58.3849L78.7989 58.0857V59.5529H80.1408V60.3058Z" fill="#E30520"/>
<path d="M82.1826 58.4235H81.1304V57.3713H82.1826V58.4235ZM81.1883 59.5528H82.1199V64.6157H81.1883V59.5528Z" fill="#E30520"/>
<path d="M83.5823 59.5528H84.4559V60.2864H84.4752C84.8324 59.7024 85.3393 59.4321 86.0826 59.4321C86.6666 59.4321 87.2555 59.7314 87.521 60.4167C87.8685 59.6928 88.6312 59.4321 89.0897 59.4321C90.3785 59.4321 90.8467 60.2671 90.8467 61.3675V64.6108H89.9151V61.5943C89.9151 60.9669 89.7655 60.185 89.0125 60.185C88.0616 60.185 87.6803 61.1213 87.6803 62.0625V64.6156H86.7487V61.5992C86.7487 60.9717 86.5991 60.1899 85.8461 60.1899C84.8952 60.1899 84.5139 61.1262 84.5139 62.0673V64.6204H83.5823V59.5576V59.5528Z" fill="#E30520"/>
<path d="M92.4106 59.9099C92.8788 59.63 93.4339 59.4321 94.0807 59.4321C95.5287 59.4321 96.1176 60.1464 96.1176 61.5268V63.6214C96.1176 64.1957 96.1369 64.466 96.1562 64.6156H95.2826V63.9592H95.2632C95.046 64.2681 94.5489 64.7314 93.6945 64.7314C92.6036 64.7314 91.8362 64.2536 91.8362 63.1532C91.8362 61.8839 93.2263 61.4833 94.1869 61.4833C94.5537 61.4833 94.8143 61.4833 95.1812 61.5026C95.1812 60.6291 94.8626 60.1802 93.931 60.1802C93.4049 60.1802 92.8402 60.3781 92.4637 60.6966L92.4154 59.9051L92.4106 59.9099ZM95.1812 62.2024C94.9833 62.2024 94.7854 62.1831 94.5875 62.1831C94.0807 62.1831 92.8305 62.2604 92.8305 63.1581C92.8305 63.6938 93.347 63.9834 93.7717 63.9834C94.6937 63.9834 95.1812 63.409 95.1812 62.6513V62.2024Z" fill="#E30520"/>
<path d="M100.143 60.3058H98.8014V63.0761C98.8014 63.6649 99.1586 63.9786 99.5833 63.9786C99.8729 63.9786 100.08 63.8869 100.22 63.8001V64.5964C100.013 64.6543 99.7233 64.7364 99.4289 64.7364C98.4683 64.7364 97.8698 64.2779 97.8698 63.2692V60.3106H96.7258V59.5577H97.8698V58.3849L98.8014 58.0857V59.5529H100.143V60.3058Z" fill="#E30520"/>
<path d="M104.956 64.4081C104.599 64.5384 104.193 64.7363 103.358 64.7363C101.562 64.7363 100.737 63.6455 100.737 61.9949C100.737 60.4939 101.678 59.4321 103.112 59.4321C104.801 59.4321 105.347 60.6628 105.347 62.2893H101.731C101.731 63.2932 102.513 63.9785 103.401 63.9785C104.014 63.9785 104.734 63.66 104.961 63.4718V64.4032L104.956 64.4081ZM104.352 61.5992C104.352 60.8221 103.894 60.1899 103.093 60.1899C102.18 60.1899 101.804 60.9428 101.731 61.5992H104.352Z" fill="#E30520"/>
<path d="M109.01 57.6851H110.005V60.5809H113.321V57.6851H114.315V64.6157H113.321V61.4592H110.005V64.6157H109.01V57.6851Z" fill="#E30520"/>
<path d="M119.677 64.4081C119.32 64.5384 118.915 64.7363 118.08 64.7363C116.284 64.7363 115.459 63.6455 115.459 61.9949C115.459 60.4939 116.4 59.4321 117.834 59.4321C119.523 59.4321 120.068 60.6628 120.068 62.2893H116.453C116.453 63.2932 117.235 63.9785 118.123 63.9785C118.736 63.9785 119.455 63.66 119.682 63.4718V64.4032L119.677 64.4081ZM119.074 61.5992C119.074 60.8221 118.615 60.1899 117.814 60.1899C116.902 60.1899 116.525 60.9428 116.453 61.5992H119.074Z" fill="#E30520"/>
<path d="M121.314 59.9099C121.782 59.63 122.337 59.4321 122.984 59.4321C124.432 59.4321 125.021 60.1464 125.021 61.5268V63.6214C125.021 64.1957 125.04 64.466 125.06 64.6156H124.186V63.9592H124.167C123.949 64.2681 123.452 64.7314 122.598 64.7314C121.507 64.7314 120.74 64.2536 120.74 63.1532C120.74 61.8839 122.13 61.4833 123.09 61.4833C123.457 61.4833 123.718 61.4833 124.085 61.5026C124.085 60.6291 123.766 60.1802 122.834 60.1802C122.308 60.1802 121.743 60.3781 121.367 60.6966L121.319 59.9051L121.314 59.9099ZM124.085 62.2024C123.887 62.2024 123.689 62.1831 123.491 62.1831C122.984 62.1831 121.734 62.2604 121.734 63.1581C121.734 63.6938 122.25 63.9834 122.675 63.9834C123.597 63.9834 124.085 63.409 124.085 62.6513V62.2024Z" fill="#E30520"/>
<path d="M129.046 60.3058H127.704V63.0761C127.704 63.6649 128.062 63.9786 128.486 63.9786C128.776 63.9786 128.984 63.8869 129.124 63.8001V64.5964C128.916 64.6543 128.626 64.7364 128.332 64.7364C127.371 64.7364 126.773 64.2779 126.773 63.2692V60.3106H125.629V59.5577H126.773V58.3849L127.704 58.0857V59.5529H129.046V60.3058Z" fill="#E30520"/>
<path d="M131.088 58.4235H130.036V57.3713H131.088V58.4235ZM130.094 59.5528H131.025V64.6157H130.094V59.5528Z" fill="#E30520"/>
<path d="M132.493 59.5528H133.395V60.3588H133.415C133.695 59.7845 134.37 59.437 135.075 59.437C136.388 59.437 136.972 60.2527 136.972 61.6137V64.6205H136.04V61.9998C136.04 60.8173 135.78 60.243 134.969 60.1899C133.907 60.1899 133.429 61.0442 133.429 62.2749V64.6157H132.498V59.5528H132.493Z" fill="#E30520"/>
<path d="M142.798 64.3985C142.798 65.9381 142.007 66.8213 140.187 66.8213C139.651 66.8213 139.183 66.7538 138.372 66.4738L138.469 65.6099C139.183 65.9381 139.612 66.0684 140.298 66.0684C141.283 66.0684 141.867 65.4024 141.867 64.331V63.8339H141.847C141.452 64.3599 140.795 64.6205 140.148 64.6205C138.7 64.6205 137.986 63.4381 137.986 62.1302C137.986 60.8222 138.72 59.4419 140.25 59.4419C141.143 59.4419 141.64 59.7701 141.92 60.3155H141.939V59.5626H142.803V64.4082L142.798 64.3985ZM141.867 62.1446C141.867 61.0925 141.379 60.19 140.39 60.19C139.4 60.19 138.98 61.2132 138.98 62.0771C138.98 63.0279 139.516 63.8628 140.39 63.8628C141.263 63.8628 141.867 63.0906 141.867 62.1446Z" fill="#E30520"/>
<path d="M149.898 58.7276C149.392 58.5297 149.112 58.438 148.595 58.438C148.04 58.438 147.384 58.6359 147.384 59.3598C147.384 60.6919 150.362 60.383 150.362 62.6659C150.362 64.1476 149.218 64.7315 147.833 64.7315C147.345 64.7315 146.867 64.5916 146.413 64.442L146.515 63.5201C146.853 63.6601 147.446 63.858 147.953 63.858C148.518 63.858 149.314 63.5394 149.314 62.7238C149.314 61.1745 146.336 61.6041 146.336 59.4515C146.336 58.2208 147.311 57.5645 148.561 57.5645C149.015 57.5645 149.565 57.6417 150.038 57.8106L149.898 58.7228V58.7276Z" fill="#E30520"/>
<path d="M151.009 65.9862C151.129 66.0248 151.289 66.0634 151.448 66.0634C152.283 66.0634 152.558 64.91 152.558 64.8134C152.558 64.7073 152.437 64.4466 152.379 64.2777L150.661 59.5527H151.684L153.046 63.742H153.065L154.455 59.5527H155.396L153.528 64.7266C153.181 65.7015 152.814 66.8212 151.583 66.8212C151.284 66.8212 151.115 66.7826 150.946 66.7536L151.004 65.9911L151.009 65.9862Z" fill="#E30520"/>
<path d="M155.734 63.6214C156.101 63.8579 156.627 63.9785 156.897 63.9785C157.327 63.9785 157.853 63.8 157.853 63.2546C157.853 62.3327 155.657 62.41 155.657 60.991C155.657 59.9389 156.439 59.4321 157.443 59.4321C157.877 59.4321 158.239 59.5238 158.606 59.63L158.529 60.4457C158.321 60.3153 157.761 60.185 157.544 60.185C157.066 60.185 156.651 60.3829 156.651 60.8028C156.651 61.8356 158.847 61.5364 158.847 63.1532C158.847 64.2343 157.983 64.7314 157.081 64.7314C156.603 64.7314 156.12 64.6832 155.691 64.4515L155.739 63.6166L155.734 63.6214Z" fill="#E30520"/>
<path d="M162.419 60.3058H161.077V63.0761C161.077 63.6649 161.435 63.9786 161.864 63.9786C162.154 63.9786 162.361 63.8869 162.501 63.8001V64.5964C162.294 64.6543 162.004 64.7364 161.705 64.7364C160.74 64.7364 160.146 64.2779 160.146 63.2692V60.3106H159.002V59.5577H160.146V58.3849L161.077 58.0857V59.5529H162.419V60.3058Z" fill="#E30520"/>
<path d="M167.232 64.4081C166.874 64.5384 166.469 64.7363 165.634 64.7363C163.838 64.7363 163.013 63.6455 163.013 61.9949C163.013 60.4939 163.954 59.4321 165.388 59.4321C167.077 59.4321 167.623 60.6628 167.623 62.2893H164.007C164.007 63.2932 164.794 63.9785 165.677 63.9785C166.295 63.9785 167.01 63.66 167.236 63.4718V64.4032L167.232 64.4081ZM166.623 61.5992C166.623 60.8221 166.17 60.1899 165.364 60.1899C164.451 60.1899 164.07 60.9428 164.002 61.5992H166.623Z" fill="#E30520"/>
<path d="M168.622 59.5528H169.495V60.2864H169.515C169.872 59.7024 170.379 59.4321 171.122 59.4321C171.706 59.4321 172.295 59.7314 172.56 60.4167C172.908 59.6928 173.671 59.4321 174.129 59.4321C175.418 59.4321 175.886 60.2671 175.886 61.3675V64.6108H174.955V61.5943C174.955 60.9669 174.805 60.185 174.052 60.185C173.096 60.185 172.72 61.1213 172.72 62.0625V64.6156H171.783V61.5992C171.783 60.9717 171.634 60.1899 170.881 60.1899C169.925 60.1899 169.549 61.1262 169.549 62.0673V64.6204H168.617V59.5576L168.622 59.5528Z" fill="#E30520"/>
<path d="M179.762 57.6851H181.582C183.001 57.6851 184.184 58.1822 184.184 59.7604C184.184 61.3386 182.982 61.8453 181.732 61.8453H180.757V64.6157H179.762V57.6851ZM180.757 60.9718H181.741C182.359 60.9718 183.131 60.6629 183.131 59.7507C183.131 58.8385 182.219 58.5586 181.601 58.5586H180.757V60.9718Z" fill="#E30520"/>
<path d="M185.009 59.5528H185.882V60.3395H185.902C186.153 59.8135 186.689 59.437 187.224 59.437C187.504 59.437 187.639 59.466 187.842 59.5046V60.3395C187.673 60.272 187.485 60.2478 187.326 60.2478C186.491 60.2478 185.945 61.0442 185.945 62.3135V64.6157H185.014V59.5528H185.009Z" fill="#E30520"/>
<path d="M190.874 59.4321C192.413 59.4321 193.446 60.547 193.446 62.0818C193.446 63.5297 192.394 64.7314 190.874 64.7314C189.353 64.7314 188.291 63.5297 188.291 62.0818C188.291 60.5422 189.324 59.4321 190.874 59.4321ZM190.874 63.9785C191.964 63.9785 192.452 62.9843 192.452 62.0818C192.452 61.1213 191.868 60.185 190.874 60.185C189.879 60.185 189.286 61.1213 189.286 62.0818C189.286 62.9843 189.773 63.9785 190.874 63.9785Z" fill="#E30520"/>
<path d="M197.143 60.3058H195.802V63.0761C195.802 63.6649 196.159 63.9786 196.588 63.9786C196.878 63.9786 197.086 63.8869 197.226 63.8001V64.5964C197.018 64.6543 196.728 64.7364 196.429 64.7364C195.464 64.7364 194.87 64.2779 194.87 63.2692V60.3106H193.726V59.5577H194.87V58.3849L195.802 58.0857V59.5529H197.143V60.3058Z" fill="#E30520"/>
<path d="M201.956 64.4081C201.599 64.5384 201.193 64.7363 200.358 64.7363C198.563 64.7363 197.737 63.6455 197.737 61.9949C197.737 60.4939 198.679 59.4321 200.112 59.4321C201.802 59.4321 202.347 60.6628 202.347 62.2893H198.732C198.732 63.2932 199.518 63.9785 200.402 63.9785C201.02 63.9785 201.734 63.66 201.961 63.4718V64.4032L201.956 64.4081ZM201.348 61.5992C201.348 60.8221 200.894 60.1899 200.088 60.1899C199.176 60.1899 198.794 60.9428 198.727 61.5992H201.348Z" fill="#E30520"/>
<path d="M206.57 60.4071C206.213 60.2575 205.856 60.1899 205.557 60.1899C204.514 60.1899 203.93 61.1262 203.93 62.0867C203.93 62.9892 204.418 63.9834 205.62 63.9834C205.938 63.9834 206.334 63.8821 206.624 63.6938L206.696 64.5288C206.31 64.7074 205.861 64.7363 205.523 64.7363C203.993 64.7363 202.941 63.5346 202.941 62.0867C202.941 60.5471 203.974 59.437 205.523 59.437C205.9 59.437 206.387 59.5287 206.657 59.6349L206.575 60.4071H206.57Z" fill="#E30520"/>
<path d="M210.21 60.3058H208.868V63.0761C208.868 63.6649 209.225 63.9786 209.655 63.9786C209.944 63.9786 210.152 63.8869 210.292 63.8001V64.5964C210.084 64.6543 209.795 64.7364 209.496 64.7364C208.53 64.7364 207.936 64.2779 207.936 63.2692V60.3106H206.792V59.5577H207.936V58.3849L208.868 58.0857V59.5529H210.21V60.3058Z" fill="#E30520"/>
<path d="M212.252 58.4235H211.199V57.3713H212.252V58.4235ZM211.257 59.5528H212.189V64.6157H211.257V59.5528Z" fill="#E30520"/>
<path d="M215.906 59.4321C217.445 59.4321 218.478 60.547 218.478 62.0818C218.478 63.5297 217.426 64.7314 215.906 64.7314C214.385 64.7314 213.323 63.5297 213.323 62.0818C213.323 60.5422 214.356 59.4321 215.906 59.4321ZM215.906 63.9785C216.996 63.9785 217.484 62.9843 217.484 62.0818C217.484 61.1213 216.9 60.185 215.906 60.185C214.911 60.185 214.318 61.1213 214.318 62.0818C214.318 62.9843 214.805 63.9785 215.906 63.9785Z" fill="#E30520"/>
<path d="M219.487 59.5528H220.39V60.3588H220.409C220.689 59.7845 221.36 59.437 222.065 59.437C223.377 59.437 223.962 60.2527 223.962 61.6137V64.6205H223.03V61.9998C223.03 60.8173 222.774 60.243 221.958 60.1899C220.896 60.1899 220.419 61.0442 220.419 62.2749V64.6157H219.487V59.5528Z" fill="#E30520"/>
</g>
<defs>
<linearGradient id="paint0_linear_572_1398" x1="33.219" y1="38.5341" x2="230.29" y2="38.5341" gradientUnits="userSpaceOnUse">
<stop stop-color="white"/>
<stop offset="0.03" stop-color="#FDF3F3"/>
<stop offset="0.18" stop-color="#F6B5B9"/>
<stop offset="0.34" stop-color="#F07F86"/>
<stop offset="0.49" stop-color="#EB545D"/>
<stop offset="0.63" stop-color="#E7323C"/>
<stop offset="0.77" stop-color="#E41925"/>
<stop offset="0.9" stop-color="#E20B17"/>
<stop offset="1" stop-color="#E20613"/>
</linearGradient>
<linearGradient id="paint1_linear_572_1398" x1="43.7464" y1="64.6446" x2="43.7464" y2="0.816406" gradientUnits="userSpaceOnUse">
<stop stop-color="#FBBB00"/>
<stop offset="0.12" stop-color="#FBBC04"/>
<stop offset="0.24" stop-color="#FBBF10"/>
<stop offset="0.37" stop-color="#FBC526"/>
<stop offset="0.5" stop-color="#FCCD43"/>
<stop offset="0.63" stop-color="#FCD769"/>
<stop offset="0.76" stop-color="#FDE398"/>
<stop offset="0.9" stop-color="#FEF2CE"/>
<stop offset="1" stop-color="white"/>
</linearGradient>
<linearGradient id="paint2_linear_572_1398" x1="34.7441" y1="64.6446" x2="34.7441" y2="0.816406" gradientUnits="userSpaceOnUse">
<stop stop-color="#E53027"/>
<stop offset="0.06" stop-color="#E73E22"/>
<stop offset="0.31" stop-color="#EF770F"/>
<stop offset="0.5" stop-color="#F49B04"/>
<stop offset="0.6" stop-color="#F7A900"/>
<stop offset="1" stop-color="white"/>
</linearGradient>
<linearGradient id="paint3_linear_572_1398" x1="25.3995" y1="64.6446" x2="25.3995" y2="0.816406" gradientUnits="userSpaceOnUse">
<stop stop-color="#E53027"/>
<stop offset="0.39" stop-color="#E53128"/>
<stop offset="0.52" stop-color="#E6382F"/>
<stop offset="0.62" stop-color="#E7433B"/>
<stop offset="0.7" stop-color="#E9534C"/>
<stop offset="0.77" stop-color="#EC6862"/>
<stop offset="0.83" stop-color="#EF827D"/>
<stop offset="0.89" stop-color="#F3A29E"/>
<stop offset="0.94" stop-color="#F7C6C3"/>
<stop offset="0.98" stop-color="#FCEDEC"/>
<stop offset="1" stop-color="white"/>
</linearGradient>
<clipPath id="clip0_572_1398">
<rect width="235" height="66" fill="white" transform="translate(0.599121 0.816406)"/>
</clipPath>
</defs>
</svg>
