<svg width="201" height="48" viewBox="0 0 201 48" fill="none" xmlns="http://www.w3.org/2000/svg">
<g clip-path="url(#clip0_572_1374)">
<path d="M200.599 0.316406H0.599121V47.3164H200.599V0.316406Z" fill="#004996"/>
<mask id="mask0_572_1374" style="mask-type:luminance" maskUnits="userSpaceOnUse" x="0" y="0" width="201" height="48">
<path d="M200.599 0.316406H0.599121V47.3164H200.599V0.316406Z" fill="white"/>
</mask>
<g mask="url(#mask0_572_1374)">
<path d="M151.64 17.6766C151.64 14.4482 149.662 11.8269 144.335 11.8269C139.007 11.8269 137.029 14.4482 137.029 17.6766C137.029 20.9049 140.299 23.5218 144.335 23.5218C148.37 23.5218 151.64 20.9049 151.64 17.6766ZM144.29 28.6116C133.241 28.6116 127.307 23.5443 127.307 17.2899C127.307 11.0355 130.143 5.77483 144.396 5.77483C158.65 5.77483 161.269 11.04 161.269 17.2899C161.269 23.5398 155.526 28.6116 144.29 28.6116ZM81.6844 12.7441C81.2949 12.1461 80.5914 11.9663 79.9364 11.8179C77.6974 11.6021 72.4625 11.6965 72.4625 11.6965V15.6308H78.2372C79.5028 15.5678 80.8082 15.4689 81.6578 14.4482C82.0384 13.9356 81.9189 13.2792 81.6799 12.7396M116.965 6.46726H126.09V28.09H113.934C113.934 28.09 102.234 13.7963 102.119 13.7648L102.11 28.0451H92.4417L81.2064 28.0271C81.2064 28.0271 72.5377 19.8573 72.4492 19.9472V28.0001H62.3866V6.47176L78.1 6.33687C81.9941 6.47176 86.2245 6.25144 89.6229 8.005C91.4859 9.01667 92.3798 10.9906 92.0611 13.0903C90.9283 17.3214 86.3616 18.3285 82.5871 18.7602V18.9086C85.7244 21.7727 89.0388 24.457 92.2647 27.1728C92.3797 27.2313 92.6187 27.501 92.6762 27.1728L92.6585 6.42679L106.96 6.44028L116.965 19.6325V6.47176V6.46726ZM183.032 17.0651C183.032 17.0651 193.758 6.47176 193.608 6.44478L182.133 6.48974L176.014 13.8952L169.628 6.48075L158.039 6.46726V6.58866C161.769 10.3791 168.615 17.2719 168.615 17.2719L157.897 28.0226C158.048 28.171 169.473 28.0586 169.473 28.0586L175.819 21.0893L181.815 28.0226L193.656 27.9597L183.023 17.0651H183.032ZM35.0441 11.8314C38.2832 10.7702 42.1508 10.6848 45.5758 11.2693C49.7973 12.5103 54.4879 13.2432 59.1165 12.3529C59.7625 12.2001 60.444 12.0787 60.9706 11.656C60.9706 11.656 61.0325 6.37284 60.944 6.37284C59.7094 6.73704 58.2403 7.17318 56.8818 7.2676C51.6027 8.0095 47.3458 5.6894 42.3056 5.559C39.9736 5.47807 37.146 5.55001 34.9335 6.54819C34.9335 6.54819 34.8936 11.8314 35.0397 11.8314M42.9163 19.1019C46.5448 19.1469 49.4964 20.842 53.1249 20.797C55.78 20.878 58.643 20.9274 60.9396 19.8663C60.9396 18.1532 60.9396 14.5247 60.9396 14.5247C58.5235 15.316 55.6428 15.5139 52.8683 15.4059C49.1202 15.1227 45.8413 13.6074 41.9472 13.6209C39.5311 13.6614 36.2875 13.7153 34.96 14.7L34.9821 19.8528C34.9821 19.8528 40.1949 18.8456 42.9119 19.1019M46.3192 22.2358C43.3101 21.5884 39.6196 21.6333 36.5575 22.2448C35.9999 22.4562 35.2122 22.627 34.991 22.8968V28.0046C36.0796 27.8203 37.1106 27.4561 38.2036 27.3302C39.7656 27.2043 41.0356 27.0469 42.5667 27.2492C45.6067 27.2672 48.3503 28.2789 51.2443 28.7735C54.6073 29.0298 57.8819 29.2276 60.944 28.0136C60.9927 26.2106 60.9927 24.3671 60.9927 22.6855C60.6387 22.8384 60.2714 22.9508 59.9174 22.9822C55.4968 24.0209 50.4832 23.5623 46.3192 22.2313M7.57324 6.52571H33.6104V11.9078H17.9191L17.9014 14.691H33.5705V19.9697L18.0031 19.9877V28.0046L7.57767 28.0181V6.52571H7.57324Z" fill="#FFED00"/>
<path d="M173.726 36.777V35.4146C173.726 35.4146 177.191 35.4146 177.124 36.0486C177.053 36.6825 173.726 36.777 173.726 36.777ZM177.549 37.919C178.253 37.6987 179.014 37.6627 179.598 37.1636C180.244 36.786 180.531 36.0755 180.443 35.3292C180.058 33.9982 178.677 33.9398 177.593 33.7599H170.155L170.133 39.196V40.945L173.704 41.0035V39.196L173.712 38.6834L174.292 39.196L176.31 40.9945L180.744 40.972L178.885 39.196L177.549 37.919ZM127.32 36.8669V35.5045C127.32 35.5045 130.785 35.5045 130.718 36.143C130.648 36.777 127.32 36.8669 127.32 36.8669ZM133.205 37.1636C133.851 36.786 134.139 36.0755 134.05 35.3292C133.665 33.9982 132.285 33.9398 131.201 33.7599H123.762L123.731 40.945L127.36 40.9585L127.316 38.6834L129.913 40.9945L134.343 40.972L131.148 37.919C131.851 37.6987 132.612 37.6627 133.196 37.1636M67.9045 38.8363C67.9134 38.9622 67.8956 39.0791 67.8647 39.196H67.8558C67.6877 39.7445 67.1345 40.1537 66.6788 40.4325C64.4264 41.4981 60.8509 41.1204 58.5632 40.2616C58.5189 39.9469 58.5145 39.5557 58.5189 39.1735C58.5233 38.8633 58.5322 38.5665 58.5322 38.3237C58.7888 38.4766 59.2845 38.7733 59.519 38.8003C59.904 38.9397 60.8952 39.1735 60.8952 39.1735C61.9306 39.4163 63.0281 39.4927 64.0237 39.1735C64.0237 39.1735 64.1697 39.1465 64.2096 39.133C64.2981 39.0701 64.4441 38.8812 64.2671 38.7913L63.9131 38.6025C62.3289 38.2068 60.5987 38.1528 59.1296 37.4109C58.7756 37.1052 58.3375 36.7635 58.2755 36.2689C58.2136 35.4595 58.7092 34.7761 59.3243 34.4344C61.6651 33.2114 65.0548 33.4452 67.4885 34.241C67.5195 34.9155 67.5461 35.572 67.5195 36.1924C67.1567 36.098 66.9133 35.9811 66.5106 35.8912C65.1919 35.554 63.5768 35.2527 62.2316 35.7518C62.1475 35.8462 62.028 35.9676 62.1165 36.0935L62.559 36.3093C64.2007 36.6735 66.0194 36.6376 67.4 37.7482C67.6921 38.0584 67.8425 38.4001 67.9001 38.8318M191.099 39.1915C192.094 40.1222 193.023 40.945 193.023 40.945H188.908L186.806 39.124H186.819L186.08 38.4856V39.1195L186.067 40.9091H182.266V39.196H182.257V33.7824H186.027V36.6511L189.112 33.7554L193.169 33.7869L189.413 37.5144C189.859 37.9955 190.497 38.6115 191.116 39.196H191.094L191.099 39.1915ZM91.4282 33.7285L89.0165 39.1915L88.2156 41.0035L84.2905 41.0215L83.6622 39.1915L82.7904 36.6825L81.932 39.1915L81.3257 40.972H77.4494L76.675 39.1915L74.2987 33.7015L77.7547 33.7285C77.7547 33.7285 78.7459 36.4892 79.3654 37.7572L80.9629 33.7464L84.6534 33.7285L86.1933 37.6627L87.8572 33.724H91.437L91.4282 33.7285ZM153.808 33.7285H157.384L154.972 39.1915L154.171 40.999L150.237 40.972L149.618 39.1915L148.742 36.678L147.888 39.1915L147.281 40.972H143.405L142.631 39.1915L140.254 33.7015L143.715 33.733C143.715 33.733 144.702 36.4937 145.321 37.7617L146.923 33.7509L150.614 33.7375L152.153 37.6717L153.817 33.733L153.808 33.7285ZM101.601 33.7375H111.93V35.7293H108.651V40.9765H104.938V35.7293H101.619L101.601 33.7375ZM122.05 38.2338L116.408 38.2652L116.417 39.2679H122.081L122.05 40.981H113.151V39.1915V33.7195L122.05 33.7509V35.554L116.408 35.5764V36.6196C116.399 36.6421 122.081 36.6196 122.081 36.6196L122.05 38.2338ZM57.0365 38.2338L51.3946 38.2652L51.4034 39.2679H57.0675L57.0409 40.981H48.1421V39.1915V33.7195L57.0409 33.7509V35.554L51.399 35.5764V36.6196C51.3901 36.6421 57.0719 36.6196 57.0719 36.6196L57.0454 38.2338H57.0365ZM16.8303 33.7689L22.2687 33.7824V40.981H18.6711L18.6623 39.1915L18.6446 36.5881L17.3525 39.1915L16.4542 41.0035L13.2593 40.9855C12.9982 40.5089 12.6619 39.8479 12.33 39.1915C11.6884 37.9055 11.0689 36.6151 11.0689 36.678V40.9495H7.52881V33.7824L13.1177 33.7509L14.9187 38.0629L16.8392 33.7689H16.8303ZM47.2438 33.7824L43.4869 37.5099C43.9206 37.9775 44.5401 38.5755 45.1463 39.1465C46.1685 40.1042 47.1421 40.9675 47.1421 40.9675H43.0267L40.9735 39.1915H40.9691L40.1504 38.4856V39.187H40.1549L40.1416 40.9765H36.3405V39.1915H36.3316V33.7824H40.1018V36.6466L43.186 33.7509L47.2438 33.7824ZM28.3798 37.5953L29.2117 35.6439L29.9905 37.5953H28.3798ZM31.8667 33.7689L26.592 33.7509L23.968 39.1915L23.1051 40.981H26.9106L27.5257 39.6186L30.9728 39.5962L31.5791 40.981H35.5528L34.6368 39.1915L31.8667 33.7689ZM95.6763 37.5953L96.5126 35.6439L97.2914 37.5953H95.6807H95.6763ZM99.1632 33.7689L93.8885 33.7509L91.2645 39.1915L90.4016 40.981H94.2027L94.8355 39.5512L98.2649 39.5962L98.8667 40.981H102.845L101.929 39.1915L99.1588 33.7689H99.1632ZM163.265 39.3219C161.937 39.3219 160.862 38.4856 160.862 37.4604C160.862 36.4352 161.512 35.5989 163.265 35.5989C165.017 35.5989 165.668 36.4307 165.668 37.4604C165.668 38.4901 164.592 39.3219 163.265 39.3219ZM163.283 33.67C158.596 33.67 157.663 35.3471 157.663 37.3345C157.663 39.3219 159.614 40.9361 163.247 40.9361C166.88 40.9361 168.832 39.3219 168.832 37.3345C168.832 35.3471 167.752 33.67 163.283 33.67Z" fill="white"/>
</g>
</g>
<defs>
<clipPath id="clip0_572_1374">
<rect width="200" height="47" fill="white" transform="translate(0.599121 0.316406)"/>
</clipPath>
</defs>
</svg>
