<svg width="194" height="56" viewBox="0 0 194 56" fill="none" xmlns="http://www.w3.org/2000/svg">
<path d="M64.0878 30.2928C58.2444 25.9576 51.7915 22.3796 44.8768 19.7024C35.6344 16.1265 25.5702 14.1606 15.038 14.1606C10.1099 14.1606 5.28588 14.5913 0.599121 15.4129C19.5729 15.8415 37.2902 21.092 52.5258 29.9454C52.6195 29.9995 53.023 30.1909 53.4807 30.2596C53.5784 30.2762 53.7012 30.2887 53.826 30.2928C54.24 30.297 54.683 30.2908 54.7933 30.2928H64.0878Z" fill="#E40138"/>
<path d="M10.7444 30.2929H22.3417L28.5928 21.635C25.5391 20.4285 22.4021 19.38 19.1943 18.5001L10.7424 30.2929H10.7444ZM191.192 0.210717C189.609 0.210717 188.382 1.48382 188.382 2.99199C188.382 4.50015 189.599 5.75661 191.175 5.75661C192.752 5.75661 193.992 4.48559 193.992 2.97534C193.992 1.4651 192.767 0.210717 191.192 0.210717ZM191.175 5.38217C189.792 5.38217 188.739 4.30669 188.739 2.99199C188.739 1.67728 189.8 0.585159 191.192 0.585159C192.584 0.585159 193.645 1.66272 193.645 2.97534C193.645 4.28797 192.567 5.38217 191.175 5.38217ZM192.401 2.44697C192.401 1.82706 191.987 1.48382 191.24 1.48382H190.129V4.34622H190.479V3.44132H191.24C191.298 3.44132 191.356 3.44132 191.415 3.43508L192.028 4.3483H192.442L191.747 3.37059C192.17 3.23953 192.403 2.91502 192.403 2.44905M191.242 3.13344H190.481V1.79585H191.242C191.756 1.79585 192.064 2.02468 192.064 2.44905C192.064 2.87341 191.756 3.13344 191.242 3.13344ZM185.284 0.152471H178.197C177.184 0.152471 176.275 0.572678 175.657 1.27164L175.642 1.27788L165.202 13.2954C165.202 13.2954 154.484 1.24043 154.395 1.15306L154.389 1.14682C153.536 0.306408 152.527 0.160792 152.044 0.150391H111.461C109.867 0.150391 108.574 1.42349 108.574 2.99407V11.9307C106.319 4.80179 96.633 0.150391 83.3695 0.150391L65.4462 0.164952C63.9526 0.177434 62.7294 1.30908 62.5984 2.75068L62.5713 2.77356L62.5672 27.8612L42.728 0.150391H35.5678C33.3711 0.202396 31.4698 1.32572 30.309 2.99407L22.1088 14.4395C25.6763 14.7328 29.1774 15.2508 32.5994 15.9789L37.5129 9.13699L51.7104 28.9096C51.9268 29.3007 52.2222 29.6148 52.5758 29.8457C52.5821 29.8457 52.5862 29.8519 52.5904 29.854C52.5945 29.8582 52.5987 29.8603 52.6029 29.8644C53.0106 30.1203 53.4974 30.2701 54.0403 30.2971L82.8848 30.2846C96.4645 30.2846 106.298 25.5833 108.574 18.4606V27.4493C108.574 29.0074 109.843 30.2701 111.415 30.2929L147.201 30.2971V24.2728H120.874V18.2068H143.954V12.1824H120.874V6.20178H146.423L159.119 20.7842C159.119 20.7842 159.115 27.4118 159.115 27.4555C159.115 29.024 160.407 30.2971 162.002 30.2971H171.351V20.5679L186.609 2.83805C186.834 2.55514 186.967 2.19942 186.967 1.81458C186.967 0.897194 186.212 0.154551 185.282 0.154551M83.6461 24.1604H74.8697V6.26003H83.0928C90.8999 6.26003 96.5665 9.91708 96.5665 15.2529C96.5665 20.5887 91.1766 24.1583 83.6461 24.1583M186.526 41.0893H10.6675V55.4825H186.528V41.0893H186.526ZM19.4211 45.7075H16.3111V47.7378H18.901V49.1731H16.3111V52.2935H14.543V44.2783H19.4232V45.7075H19.4211ZM22.5165 52.2935H20.7483V44.2783H22.5165V52.2935ZM26.0529 50.8082H28.8612V52.2935H24.2951V44.2783H26.0529V50.8061V50.8082ZM34.6297 45.7532H32.4974V52.2935H30.7396V45.7532H28.6074V44.2804H34.6297V45.7532ZM41.3447 46.656C41.3447 46.9161 41.3114 47.1615 41.2469 47.3924C41.1803 47.6234 41.0846 47.8376 40.9556 48.0332C40.8288 48.2287 40.6686 48.4055 40.4793 48.5574C40.29 48.7113 40.0736 48.8382 39.8261 48.936C39.9405 48.9984 40.0466 49.0774 40.1485 49.171C40.2484 49.2647 40.3399 49.3749 40.4189 49.5039L42.0311 52.2935H40.4397C40.1444 52.2935 39.9322 52.1749 39.8053 51.9419L38.5467 49.6141C38.4864 49.5143 38.4219 49.4415 38.3491 49.3957C38.2763 49.3499 38.1723 49.3271 38.0371 49.3271H37.5898V52.2935H35.832V44.2783H38.2971C38.8442 44.2783 39.3123 44.3366 39.6992 44.4572C40.0861 44.5758 40.4023 44.7422 40.6457 44.9544C40.8912 45.1687 41.068 45.4204 41.1803 45.7095C41.2906 45.9987 41.3467 46.3149 41.3467 46.656M48.9583 44.2804L46.2103 49.2459V52.2935H44.4525V49.2459L41.7066 44.2804H43.2564C43.4082 44.2804 43.5289 44.3179 43.6183 44.3927C43.7057 44.4676 43.7806 44.5633 43.8388 44.6819L44.9102 47.0159C44.9996 47.199 45.0807 47.3716 45.1556 47.5297C45.2284 47.6899 45.2929 47.8459 45.3491 47.9999C45.4011 47.8418 45.4593 47.6837 45.528 47.5235C45.5966 47.3654 45.6736 47.1948 45.7651 47.0159L46.8261 44.6819C46.851 44.6341 46.8801 44.5883 46.9155 44.5404C46.9509 44.4926 46.9904 44.4489 47.0382 44.4115C47.084 44.3719 47.1381 44.3428 47.2005 44.3179C47.2608 44.2929 47.3274 44.2825 47.4002 44.2825H48.9625L48.9583 44.2804ZM53.9051 52.2955H52.1369V44.2804H53.9051V52.2955ZM59.7776 48.2849C59.7776 48.6947 59.8296 49.0608 59.9357 49.3791C60.0418 49.6973 60.1853 49.9657 60.3663 50.1841C60.5493 50.4025 60.7615 50.5669 61.0049 50.6813C61.2462 50.7957 61.5083 50.8519 61.785 50.8519C61.9452 50.8519 62.0908 50.8435 62.2219 50.8269C62.3529 50.8103 62.4777 50.7832 62.5921 50.7437C62.7065 50.7042 62.8126 50.6542 62.9146 50.5898C63.0144 50.5253 63.1184 50.4441 63.2224 50.3443C63.264 50.3068 63.3077 50.2777 63.3577 50.2528C63.4055 50.2299 63.4575 50.2174 63.5095 50.2174C63.5511 50.2174 63.5927 50.2257 63.6343 50.2424C63.6759 50.259 63.7155 50.2881 63.755 50.3277L64.4519 51.1036C64.1461 51.5238 63.7654 51.8421 63.3057 52.0584C62.8459 52.2727 62.303 52.3808 61.6748 52.3808C61.0985 52.3808 60.5826 52.2768 60.1271 52.0709C59.6715 51.8629 59.2846 51.5779 58.9663 51.2118C58.6501 50.8456 58.4046 50.415 58.2361 49.9137C58.0656 49.4144 57.9803 48.8694 57.9803 48.2828C57.9803 47.6962 58.0718 47.1345 58.2549 46.6352C58.4379 46.1339 58.6979 45.7012 59.0308 45.3393C59.3636 44.9752 59.763 44.6944 60.2269 44.4905C60.6908 44.2887 61.2025 44.1889 61.7621 44.1889C62.0471 44.1889 62.3134 44.2159 62.5651 44.2679C62.8168 44.3199 63.0519 44.3948 63.2703 44.4884C63.4887 44.5821 63.6905 44.6944 63.8736 44.8275C64.0566 44.9586 64.2189 45.1021 64.3624 45.2581L63.7695 46.0985C63.7321 46.1505 63.6863 46.1963 63.6343 46.24C63.5823 46.2816 63.5095 46.3024 63.4159 46.3024C63.3535 46.3024 63.2952 46.2878 63.237 46.2587C63.1829 46.2296 63.1226 46.1942 63.0602 46.1505C62.9978 46.1089 62.9291 46.0632 62.8542 46.0133C62.7794 45.9654 62.692 45.9196 62.59 45.876C62.486 45.8344 62.3675 45.799 62.2302 45.7699C62.0929 45.7407 61.9327 45.7262 61.7496 45.7262C61.4584 45.7262 61.1921 45.7823 60.9508 45.8968C60.7095 46.0112 60.5015 46.1755 60.3268 46.3939C60.152 46.6124 60.0168 46.8807 59.9211 47.1969C59.8254 47.5152 59.7776 47.8771 59.7776 48.2849ZM72.1466 52.2955H70.3784V48.9069H67.2997V52.2955H65.5315V44.2804H67.2997V47.6296H70.3784V44.2804H72.1466V52.2955ZM78.8055 52.2955H73.9273V44.2804H78.8055V45.7095H75.6955V47.5797H78.0774V48.9547H75.6955V50.8623H78.8055V52.2935V52.2955ZM88.7198 52.2955H87.1701V47.6858C87.1701 47.5797 87.1721 47.4653 87.1784 47.3404C87.1846 47.2156 87.1929 47.0887 87.2075 46.9598L85.1938 51.0807C85.1314 51.2097 85.0482 51.3074 84.9421 51.374C84.836 51.4385 84.7175 51.4739 84.5802 51.4739H84.341C84.2057 51.4739 84.0851 51.4406 83.979 51.374C83.8729 51.3074 83.7897 51.2118 83.7273 51.0807L81.7136 46.9494C81.724 47.0804 81.7323 47.2115 81.7407 47.3384C81.7469 47.4653 81.7511 47.5817 81.7511 47.6878V52.2976H80.2013V44.2825H81.543C81.62 44.2825 81.6866 44.2825 81.7427 44.2867C81.801 44.2908 81.8509 44.3012 81.8967 44.3199C81.9424 44.3387 81.982 44.3657 82.0194 44.4031C82.0569 44.4427 82.0922 44.4968 82.1255 44.5654L84.0768 48.6323C84.1454 48.7716 84.2141 48.9152 84.2765 49.067C84.341 49.2189 84.4013 49.3707 84.4616 49.5288C84.5199 49.3666 84.5823 49.2085 84.6447 49.0545C84.7091 48.9006 84.7778 48.755 84.8506 48.6135L86.7956 44.5654C86.831 44.4968 86.8663 44.4427 86.9017 44.4031C86.9392 44.3657 86.9787 44.3366 87.0244 44.3199C87.0702 44.3012 87.1201 44.2887 87.1784 44.2867C87.2366 44.2846 87.3032 44.2825 87.3781 44.2825H88.7198V52.2976V52.2955ZM92.2666 52.2955H90.4984V44.2804H92.2666V52.2955ZM100.843 52.2955H99.4809C99.329 52.2955 99.2042 52.2581 99.1106 52.1811C99.017 52.1062 98.9463 52.0106 98.8963 51.892L98.4491 50.4941H95.5659L95.1186 51.892C95.0812 51.9939 95.0125 52.0875 94.9127 52.1707C94.8128 52.2539 94.6922 52.2955 94.5466 52.2955H93.1736L96.1067 44.2804H97.9082L100.841 52.2955H100.843ZM105.884 52.2955H104.116V44.2804H105.884V52.2955ZM114.278 52.2955H113.362C113.227 52.2955 113.115 52.2727 113.021 52.2269C112.927 52.1811 112.838 52.1021 112.749 51.9877L109.175 47.2073C109.187 47.3488 109.198 47.4881 109.204 47.6213C109.21 47.7565 109.212 47.8813 109.212 47.9978V52.2935H107.66V44.2783H108.588C108.665 44.2783 108.727 44.2804 108.78 44.2887C108.832 44.295 108.879 44.3095 108.921 44.3303C108.963 44.3511 109.002 44.3782 109.042 44.4156C109.079 44.4531 109.123 44.5009 109.173 44.5633L112.778 49.377C112.761 49.223 112.749 49.0733 112.74 48.9277C112.734 48.782 112.73 48.6447 112.73 48.5178V44.2763H114.28V52.2914L114.278 52.2955ZM117.402 46.4813C117.402 46.6415 117.45 46.7746 117.55 46.8828C117.645 46.9889 117.774 47.0804 117.933 47.1574C118.091 47.2343 118.27 47.3051 118.473 47.3696C118.677 47.434 118.883 47.5048 119.095 47.5838C119.308 47.6629 119.516 47.7565 119.717 47.8626C119.921 47.9687 120.1 48.1039 120.258 48.2703C120.416 48.4346 120.543 48.6364 120.641 48.8736C120.739 49.1107 120.787 49.3957 120.787 49.7285C120.787 50.0988 120.726 50.4462 120.604 50.7666C120.483 51.089 120.306 51.3719 120.075 51.6112C119.844 51.8504 119.559 52.0397 119.222 52.177C118.885 52.3143 118.498 52.3829 118.07 52.3829C117.835 52.3829 117.596 52.3559 117.35 52.306C117.105 52.256 116.867 52.1811 116.641 52.0896C116.412 51.996 116.196 51.8857 115.996 51.7568C115.794 51.6278 115.619 51.4863 115.472 51.3282L115.992 50.4587C116.033 50.3963 116.087 50.3443 116.156 50.3027C116.225 50.2611 116.297 50.2403 116.377 50.2403C116.481 50.2403 116.585 50.2756 116.691 50.3443C116.795 50.415 116.915 50.492 117.048 50.5752C117.182 50.6605 117.335 50.7375 117.51 50.8061C117.683 50.8768 117.887 50.9101 118.124 50.9101C118.444 50.9101 118.692 50.8352 118.869 50.6875C119.048 50.5378 119.135 50.3027 119.135 49.9803C119.135 49.793 119.087 49.6412 118.989 49.5247C118.894 49.4082 118.765 49.3104 118.607 49.2334C118.448 49.1565 118.27 49.0878 118.068 49.0296C117.866 48.9713 117.66 48.9048 117.448 48.834C117.238 48.7633 117.03 48.6739 116.83 48.5699C116.628 48.4658 116.449 48.3285 116.291 48.158C116.133 47.9874 116.006 47.7752 115.908 47.5193C115.813 47.2656 115.763 46.9494 115.763 46.5749C115.763 46.2754 115.821 45.98 115.936 45.695C116.05 45.41 116.218 45.1541 116.439 44.9294C116.659 44.7069 116.932 44.5259 117.256 44.3927C117.579 44.2596 117.949 44.193 118.363 44.193C118.596 44.193 118.821 44.2118 119.043 44.2513C119.264 44.2887 119.472 44.347 119.67 44.4219C119.867 44.4968 120.052 44.5862 120.223 44.6902C120.393 44.7942 120.547 44.9128 120.683 45.0459L120.246 45.9092C120.194 45.9987 120.14 46.0632 120.081 46.1069C120.023 46.1505 119.95 46.1734 119.861 46.1734C119.782 46.1734 119.694 46.1464 119.603 46.0944C119.511 46.0424 119.407 45.982 119.291 45.9155C119.174 45.851 119.043 45.7907 118.892 45.7366C118.742 45.6825 118.573 45.6575 118.382 45.6575C118.053 45.6575 117.808 45.7303 117.645 45.8801C117.483 46.0278 117.404 46.2296 117.404 46.4834M127.579 45.7574H125.446V52.2976H123.686V45.7574H121.554V44.2846H127.576V45.7574H127.579ZM134.841 52.2976H133.478C133.326 52.2976 133.203 52.2602 133.11 52.1832C133.016 52.1083 132.946 52.0126 132.896 51.8941L132.448 50.4962H129.567L129.12 51.8941C129.083 51.996 129.014 52.0896 128.914 52.1728C128.816 52.256 128.694 52.2976 128.548 52.2976H127.175L130.108 44.2825H131.908L134.843 52.2976H134.841ZM140.318 52.2976H135.752V44.2825H137.51V50.8103H140.318V52.2955V52.2976ZM148.323 52.2976H146.96C146.808 52.2976 146.685 52.2602 146.59 52.1832C146.496 52.1083 146.425 52.0126 146.378 51.8941L145.93 50.4962H143.049L142.602 51.8941C142.565 51.996 142.496 52.0896 142.396 52.1728C142.298 52.256 142.176 52.2976 142.03 52.2976H140.657L143.592 44.2825H145.392L148.325 52.2976H148.323ZM150.361 48.2869C150.361 48.6967 150.415 49.0629 150.519 49.3811C150.625 49.6994 150.769 49.9678 150.952 50.1862C151.135 50.4046 151.345 50.569 151.589 50.6834C151.832 50.7978 152.092 50.854 152.369 50.854C152.527 50.854 152.674 50.8456 152.806 50.829C152.937 50.8123 153.061 50.7853 153.176 50.7458C153.29 50.7063 153.396 50.6563 153.498 50.5918C153.598 50.5274 153.7 50.4462 153.804 50.3464C153.846 50.3089 153.891 50.2798 153.939 50.2548C153.987 50.232 154.039 50.2195 154.089 50.2195C154.131 50.2195 154.172 50.2278 154.214 50.2444C154.255 50.2611 154.295 50.2902 154.334 50.3297L155.031 51.1057C154.728 51.5259 154.345 51.8441 153.885 52.0605C153.425 52.2747 152.882 52.3829 152.254 52.3829C151.678 52.3829 151.164 52.2789 150.707 52.073C150.251 51.8649 149.862 51.5799 149.546 51.2138C149.228 50.8477 148.984 50.4171 148.816 49.9158C148.645 49.4165 148.56 48.8715 148.56 48.2849C148.56 47.6982 148.651 47.1366 148.836 46.6373C149.019 46.136 149.277 45.7033 149.61 45.3413C149.943 44.9773 150.343 44.6965 150.806 44.4926C151.27 44.2908 151.782 44.191 152.342 44.191C152.627 44.191 152.893 44.218 153.145 44.27C153.396 44.322 153.631 44.3969 153.85 44.4905C154.068 44.5841 154.27 44.6965 154.453 44.8296C154.636 44.9607 154.798 45.1042 154.942 45.2602L154.349 46.1006C154.312 46.1526 154.266 46.1984 154.212 46.2421C154.16 46.2837 154.087 46.3045 153.993 46.3045C153.931 46.3045 153.873 46.2899 153.816 46.2608C153.76 46.2317 153.702 46.1963 153.64 46.1526C153.577 46.111 153.509 46.0653 153.434 46.0153C153.361 45.9675 153.271 45.9217 153.17 45.878C153.068 45.8364 152.947 45.8011 152.81 45.7719C152.672 45.7428 152.512 45.7283 152.329 45.7283C152.038 45.7283 151.772 45.7844 151.532 45.8988C151.291 46.0132 151.083 46.1776 150.908 46.396C150.734 46.6144 150.598 46.8828 150.503 47.199C150.407 47.5173 150.359 47.8792 150.359 48.2869M162.491 44.2825L159.743 49.248V52.2955H157.985V49.248L155.239 44.2825H156.789C156.941 44.2825 157.062 44.3199 157.151 44.3948C157.238 44.4697 157.313 44.5654 157.372 44.684L158.443 47.018C158.532 47.2011 158.614 47.3737 158.686 47.5318C158.759 47.692 158.824 47.848 158.88 48.0019C158.932 47.8439 158.992 47.6858 159.059 47.5256C159.127 47.3675 159.204 47.1969 159.296 47.018L160.357 44.684C160.382 44.6361 160.411 44.5904 160.446 44.5425C160.482 44.4947 160.521 44.451 160.569 44.4136C160.615 44.374 160.669 44.3449 160.729 44.3199C160.789 44.295 160.856 44.2846 160.929 44.2846H162.491V44.2825ZM165.753 49.3915C165.753 49.8388 165.701 50.2465 165.595 50.6126C165.489 50.9788 165.328 51.295 165.116 51.5571C164.902 51.8192 164.634 52.023 164.311 52.1687C163.989 52.3122 163.608 52.385 163.173 52.385C162.976 52.385 162.78 52.3746 162.589 52.3517C162.395 52.3309 162.196 52.2935 161.988 52.2415L162.081 51.1577C162.092 51.0641 162.129 50.985 162.189 50.9268C162.252 50.8685 162.341 50.8394 162.456 50.8394C162.514 50.8394 162.587 50.8498 162.674 50.8706C162.761 50.8914 162.863 50.9018 162.986 50.9018C163.157 50.9018 163.304 50.8768 163.431 50.8269C163.558 50.777 163.662 50.6959 163.745 50.5794C163.829 50.4649 163.891 50.3131 163.933 50.1259C163.974 49.9386 163.995 49.7077 163.995 49.4332V44.2846H165.753V49.3936V49.3915ZM174.076 52.2955H173.158C173.023 52.2955 172.909 52.2727 172.817 52.2269C172.726 52.1811 172.634 52.1021 172.545 51.9877L168.971 47.2073C168.983 47.3488 168.994 47.4881 168.998 47.6213C169.004 47.7565 169.006 47.8813 169.006 47.9978V52.2935H167.457V44.2783H168.382C168.459 44.2783 168.524 44.2804 168.576 44.2887C168.628 44.295 168.676 44.3095 168.715 44.3303C168.757 44.3511 168.796 44.3782 168.836 44.4156C168.873 44.4531 168.917 44.5009 168.967 44.5633L172.572 49.377C172.555 49.223 172.543 49.0733 172.534 48.9277C172.528 48.782 172.524 48.6447 172.524 48.5178V44.2763H174.076V52.2914V52.2955ZM182.653 52.2955H181.29C181.138 52.2955 181.016 52.2581 180.922 52.1811C180.828 52.1062 180.758 52.0106 180.708 51.892L180.26 50.4941H177.379L176.932 51.892C176.895 51.9939 176.826 52.0875 176.726 52.1707C176.628 52.2539 176.506 52.2955 176.36 52.2955H174.987L177.92 44.2804H179.72L182.653 52.2955ZM177.785 49.2314H179.861L179.158 47.0346C179.106 46.8953 179.05 46.7309 178.991 46.5416C178.933 46.3523 178.873 46.1485 178.815 45.928C178.763 46.1505 178.706 46.3586 178.648 46.5499C178.59 46.7413 178.534 46.9057 178.482 47.045L177.785 49.2293V49.2314ZM143.455 49.2314H145.531L144.828 47.0346C144.776 46.8953 144.72 46.7309 144.661 46.5416C144.601 46.3523 144.543 46.1485 144.485 45.928C144.433 46.1505 144.376 46.3586 144.316 46.5499C144.258 46.7413 144.202 46.9057 144.15 47.045L143.453 49.2293L143.455 49.2314ZM129.973 49.2314H132.049L131.346 47.0346C131.294 46.8953 131.238 46.7309 131.179 46.5416C131.119 46.3523 131.061 46.1485 131.003 45.928C130.951 46.1505 130.894 46.3586 130.836 46.5499C130.778 46.7413 130.722 46.9057 130.67 47.045L129.973 49.2293V49.2314ZM95.9757 49.2314H98.0518L97.3486 47.0346C97.2966 46.8953 97.2405 46.7309 97.1822 46.5416C97.124 46.3523 97.0636 46.1485 97.0054 45.928C96.9534 46.1505 96.8972 46.3586 96.839 46.5499C96.7787 46.7413 96.7246 46.9057 96.6726 47.045L95.9757 49.2293V49.2314ZM39.5598 47.2864C39.6077 47.1345 39.6326 46.9702 39.6326 46.7933C39.6326 46.4418 39.5244 46.1672 39.3081 45.9675C39.0918 45.7699 38.7568 45.67 38.3013 45.67H37.594V48.0477H38.3013C38.5405 48.0477 38.7444 48.0144 38.9108 47.952C39.0793 47.8875 39.2187 47.7981 39.3247 47.6837C39.4308 47.5713 39.5099 47.4382 39.5577 47.2843" fill="#322173"/>
</svg>
