<svg width="153" height="85" viewBox="0 0 153 85" fill="none" xmlns="http://www.w3.org/2000/svg">
<path d="M98.7875 84.7372C95.8152 84.7372 86.1161 83.7327 86.1161 70.8012C86.1161 60.1101 92.9059 52.6433 102.628 52.6433C106.953 52.6433 110.402 53.8185 112.602 56.0417C114.597 58.0587 115.59 60.8959 115.553 64.4729L115.549 64.8154H106.967L107.014 64.4282C107.176 63.0824 106.883 61.9427 106.164 61.1318C105.388 60.2567 104.123 59.794 102.504 59.794C96.7499 59.794 94.6618 66.5541 94.6618 71.0967C94.6618 75.6393 96.2734 77.5876 99.8871 77.5876C102.903 77.5876 105.384 75.5179 105.92 72.5548L105.971 72.2707H114.54L114.448 72.6911C112.678 80.7982 107.555 84.7383 98.7898 84.7383L98.7875 84.7372ZM102.628 53.3351C93.3137 53.3351 86.809 60.5167 86.809 70.8001C86.809 83.089 95.9767 84.0442 98.7875 84.0442C107.025 84.0442 111.899 80.4179 113.674 72.9614H106.542C105.842 76.1067 103.145 78.2795 99.8859 78.2795C94.5816 78.2795 93.9677 74.1801 93.9677 71.0967C93.9677 66.2746 96.2413 59.101 102.503 59.101C104.325 59.101 105.771 59.6439 106.68 60.6714C107.463 61.5533 107.825 62.7411 107.735 64.1236H114.86C114.831 60.8993 113.907 58.3462 112.11 56.5296C110.042 54.4404 106.764 53.3363 102.628 53.3363V53.3351ZM142.062 84.1038H133.504L136.078 71.6946H126.318L123.744 84.1038H115.186L121.619 53.2756H130.177L127.896 64.2496H137.658L139.936 53.2756H148.494L142.06 84.1038H142.062ZM134.354 83.412H141.499L147.643 53.9674H140.499L138.221 64.9414H127.045L129.326 53.9674H122.181L116.037 83.412H123.181L125.755 71.0028H136.928L134.354 83.412ZM80.2024 84.1038H55.3554L61.7444 53.2756H86.5124L84.9294 60.7206H68.7256L67.894 64.8394H82.8379L81.4268 71.611H66.4875L65.4475 76.6576H81.7842L80.2024 84.1026V84.1038ZM56.2053 83.412H79.6412L80.9286 77.3505H64.5976L65.9228 70.9192H80.8644L81.9869 65.5324H67.0476L68.1586 60.0288H84.3693L85.6568 53.9674H62.308L56.2053 83.412ZM120.036 31.7227H111.433L110.714 26.3211H100.626L97.5872 31.7227H88.5512L106.557 0.894531H114.983L115.03 1.18432L120.035 31.7227H120.036ZM112.039 31.0309H119.22L114.396 1.58635H106.954L89.7584 31.0309H97.1828L100.222 25.6293H111.322L112.04 31.0309H112.039ZM73.3701 31.7227H64.8129L71.2901 0.894531H86.3852C91.8774 0.894531 95.4269 4.55864 95.4269 10.2306C95.4269 17.4741 90.3288 21.9732 82.1232 21.9732H75.4387L73.3713 31.7227H73.3701ZM65.6651 31.0309H72.8089L74.8763 21.2814H82.1209C89.9004 21.2814 94.7328 17.0468 94.7328 10.2306C94.7328 4.979 91.4559 1.58635 86.3841 1.58635H71.8514L65.6651 31.0309ZM60.2772 31.7227H35.4279L41.8192 0.894531H66.5871L65.0053 8.33957H48.8004L47.9699 12.4584H62.9127L61.5027 19.2277H46.5623L45.5234 24.2766H61.8601L60.2783 31.7216L60.2772 31.7227ZM36.2789 31.0309H59.7159L61.0034 24.9695H44.6724L45.9953 18.537H60.9381L62.0594 13.1514H47.1212L48.2311 7.64776H64.443L65.7304 1.58635H42.3816L36.2778 31.0309H36.2789ZM32.1074 31.7227H23.3498L23.2673 31.339C23.1459 30.7721 23.0302 30.2372 23.0302 29.6461C23.0302 28.9051 23.0772 28.1583 23.1264 27.368C23.1825 26.4608 23.241 25.5227 23.241 24.4541C23.241 21.8907 22.1368 20.7487 19.6616 20.7487H14.7089L12.4308 31.7227H3.87354L10.2637 0.894531H25.3175C34.192 0.894531 35.3294 5.25275 35.3294 9.04857C35.3294 13.6141 33.1841 16.6036 29.2577 17.5772C30.8383 18.356 31.5301 19.9103 31.5301 22.5562C31.5301 23.7245 31.4946 24.7336 31.4614 25.7106C31.4316 26.5593 31.4042 27.3622 31.4042 28.1697C31.4042 29.1834 31.4042 30.4456 31.8257 31.2107L32.1074 31.7239V31.7227ZM23.9087 31.0309H30.9987C30.7123 30.1604 30.7123 29.0734 30.7123 28.1686C30.7123 27.3485 30.7398 26.541 30.7696 25.6854C30.804 24.7152 30.8383 23.7119 30.8383 22.555C30.8383 19.7179 30.0217 18.3595 28.0207 17.8681L27.7572 17.8039V17.1476L28.0539 17.1053C33.4945 16.3287 34.6364 12.2958 34.6364 9.04857C34.6364 3.74885 31.9368 1.58635 25.3164 1.58635H10.8261L4.72227 31.0309H11.8661L14.1443 20.0569H19.6605C22.5342 20.0569 23.9316 21.4955 23.9316 24.4552C23.9316 25.5456 23.8721 26.494 23.8159 27.4126C23.7678 28.1926 23.7209 28.928 23.7209 29.6484C23.7209 30.1123 23.8079 30.5625 23.9076 31.0332L23.9087 31.0309ZM110.726 20.4956H102.89L108.907 8.95694H109.513L110.725 20.4956H110.726ZM104.032 19.8038H109.957L108.964 10.3463L104.032 19.8038ZM82.0362 15.5155H76.0813L77.7868 7.35225H82.5001C84.2731 7.35225 87.5741 7.35225 87.5741 10.9476C87.5741 13.8501 85.5548 15.5143 82.035 15.5143L82.0362 15.5155ZM76.9335 14.8236H82.0362C85.2066 14.8236 86.8823 13.4835 86.8823 10.9488C86.8823 8.41403 85.2055 8.04521 82.5012 8.04521H78.3503L76.9335 14.8236ZM21.855 14.9244H15.182L16.8462 6.97198H22.9099C25.9406 6.97198 27.4766 8.13913 27.4766 10.4414C27.4766 13.4159 25.5856 14.9233 21.855 14.9233V14.9244ZM16.0342 14.2326H21.855C25.1721 14.2326 26.7848 12.9922 26.7848 10.4425C26.7848 8.57323 25.5168 7.66494 22.9099 7.66494H17.4086L16.0342 14.2326Z" fill="#010101"/>
<path d="M49.869 84.2881H38.2158L45.5909 47.7764H0.0078125L2.63649 36.011H152.599L149.97 47.7764H57.4847L49.8678 84.2881H49.869ZM38.7071 83.8861H49.5414L57.1583 47.3744H149.649L152.097 36.4119H2.95834L0.509494 47.3744H46.0835L38.7083 83.8861H38.7071Z" fill="#010101"/>
<path d="M2.79673 36.2114L0.258545 47.576H45.8371L38.4608 84.0876H49.7051L57.3219 47.576H149.809L152.348 36.2114H2.79673Z" fill="#008AC3"/>
<path d="M49.869 84.2881H38.2158L45.5909 47.7764H0.0078125L2.63649 36.011H152.599L149.97 47.7764H57.4847L49.8678 84.2881H49.869ZM38.7071 83.8861H49.5414L57.1583 47.3744H149.649L152.097 36.4119H2.95834L0.509494 47.3744H46.0835L38.7083 83.8861H38.7071Z" fill="#010101"/>
<path d="M151.617 38.5973H2.47632L2.7283 37.4519H151.848L151.617 38.5973Z" fill="white"/>
<path d="M4.29834 31.3768H12.1489L14.427 20.4028H19.6615C22.4482 20.4028 23.5867 21.7956 23.5867 24.4552C23.5867 26.4814 23.376 28.0849 23.376 29.6472C23.376 30.2371 23.502 30.7869 23.6291 31.3779H31.522C31.0581 30.5326 31.0581 29.2246 31.0581 28.1697C31.0581 26.439 31.1841 24.7507 31.1841 22.5573C31.1841 19.6445 30.34 18.0822 28.1019 17.5347V17.45C32.8289 16.7742 34.9811 13.5671 34.9811 9.05081C34.9811 2.63547 30.8027 1.24268 25.3163 1.24268H10.5453L4.29834 31.3791V31.3768ZM17.1302 7.31898H22.9121C24.9807 7.31898 27.1329 7.86762 27.1329 10.4425C27.1329 13.6919 24.6852 14.5785 21.8572 14.5785H15.6102L17.1302 7.31898Z" fill="#D40F34"/>
<path d="M35.854 31.3769H59.9977L61.4317 24.6236H45.0973L46.2794 18.8841H61.221L62.4866 12.8055H47.5462L48.5163 7.99371H64.7236L66.1599 1.24048H42.101L35.854 31.3769Z" fill="#D40F34"/>
<path d="M78.0708 7.69819H82.5023C84.9501 7.69819 87.2282 8.03494 87.2282 10.9477C87.2282 13.4389 85.6671 15.1684 82.0373 15.1684H76.5074L78.0697 7.69705L78.0708 7.69819ZM65.2402 31.3769H73.0907L75.1581 21.6273H82.1221C89.4652 21.6273 95.0799 17.828 95.0799 10.2307C95.0799 4.87022 91.7869 1.24048 86.3852 1.24048H71.5707L65.239 31.3769H65.2402Z" fill="#D40F34"/>
<path d="M109.119 9.30289H109.204L110.343 20.1497H103.464L109.12 9.30289H109.119ZM89.1548 31.3769H97.3844L100.423 25.9752H111.018L111.735 31.3769H119.628L114.69 1.24048H106.756L89.1559 31.3769H89.1548Z" fill="#D40F34"/>
<path d="M55.7793 83.7589H79.9219L81.357 77.0046H65.0226L66.2046 71.2662H81.1463L82.4119 65.1864H67.4714L68.4416 60.3758H84.6489L86.0829 53.6226H62.0263L55.7793 83.7589Z" fill="#D40F34"/>
<path d="M115.206 64.4695C115.29 56.5354 110.182 52.9893 102.628 52.9893C92.4134 52.9893 86.4619 61.0929 86.4619 70.8001C86.4619 81.9848 94.0169 84.3902 98.7863 84.3902C107.566 84.3902 112.419 80.3378 114.107 72.6144H106.258C105.708 75.6531 103.175 77.9313 99.8848 77.9313C95.4532 77.9313 94.3136 74.9773 94.3136 71.0945C94.3136 66.3239 96.5505 59.4447 102.501 59.4447C106.174 59.4447 107.693 61.6816 107.355 64.4672H115.206V64.4695Z" fill="#D40F34"/>
<path d="M115.611 83.7589H123.462L126.036 71.3486H136.503L133.929 83.7589H141.78L148.068 53.6226H140.218L137.939 64.5965H127.47L129.751 53.6226H121.899L115.611 83.7589Z" fill="#D40F34"/>
</svg>
