<svg width="120" height="90" viewBox="0 0 120 90" fill="none" xmlns="http://www.w3.org/2000/svg">
<g clip-path="url(#clip0_572_1383)">
<mask id="mask0_572_1383" style="mask-type:luminance" maskUnits="userSpaceOnUse" x="0" y="0" width="120" height="90">
<path d="M119.599 0.316406H0.599121V89.3164H119.599V0.316406Z" fill="white"/>
</mask>
<g mask="url(#mask0_572_1383)">
<path d="M60.1015 78.882C92.5416 78.882 118.837 63.168 118.837 43.7807C118.837 24.3935 92.5368 8.67944 60.1015 8.67944C27.6661 8.67944 1.36597 24.3935 1.36597 43.7807C1.36597 63.168 27.6613 78.882 60.1015 78.882Z" fill="white"/>
</g>
<path d="M5.61759 89.3164H93.4668L98.6578 69.5599L12.0117 64.7647L5.61279 89.3164H5.61759ZM28.1838 0.316406L20.9893 29.1071L107.693 33.6674L116.033 0.316406H28.1838Z" fill="#009636"/>
<mask id="mask1_572_1383" style="mask-type:luminance" maskUnits="userSpaceOnUse" x="0" y="0" width="120" height="90">
<path d="M119.599 0.316406H0.599121V89.3164H119.599V0.316406Z" fill="white"/>
</mask>
<g mask="url(#mask1_572_1383)">
<path d="M45.7365 40.3329C44.8833 40.3329 44.4567 41.2344 44.241 41.9153C44.2123 42.227 43.8144 44.1403 43.9582 45.8522C44.0972 47.5162 44.6341 49.0219 44.682 49.1753C45.1182 50.1584 46.1727 50.1632 47.1217 50.1632C47.6538 50.0481 48.296 49.7124 48.6172 49.0315C49.3649 46.6578 49.5758 43.2676 48.296 41.009C47.6538 40.3329 46.6951 39.9924 45.7317 40.3329" fill="#E30613"/>
<path d="M113.694 52.7909H112.798H104.036L103.71 52.4649L103.6 44.3225C103.494 43.5601 103.058 43.0182 102.411 42.5818C101.764 42.4715 100.896 42.4715 100.355 43.0182C99.5972 43.5601 99.2761 44.428 99.3815 45.4062C99.2761 47.7943 99.4918 50.4029 99.1658 52.5704L98.8399 52.8964L89.7569 53.0067C89.4309 53.0067 89.1098 52.6806 89.1098 52.3546L89.2152 39.2156C89.2152 38.9998 89.2152 38.6737 89.5412 38.5634L98.6242 38.4531C99.7027 38.5634 98.9501 39.8629 99.3815 40.5151C99.3815 40.5151 100.92 39.1388 102.085 38.5586C105.526 36.8515 109.006 37.6907 111.925 38.995C111.925 38.995 112.908 39.7526 113.334 40.4048C114.216 41.7666 113.876 43.1189 113.876 44.5335C113.986 47.1373 113.799 50.0672 113.689 52.7813M87.3746 52.6806L86.9433 53.0067L79.4803 53.117C78.8332 53.0067 77.9657 53.3328 77.5343 52.6854C77.424 48.2306 77.5343 43.6703 77.5343 39.1101L77.8602 38.6737C80.7793 38.4579 84.1345 38.6737 87.159 38.6737L87.4849 39.1101L87.3746 52.6854V52.6806ZM77.5343 34.545C78.5073 32.3727 81.3209 33.2455 83.1567 32.9146C84.5659 33.0249 86.5119 32.6988 87.2692 34.3244C87.4849 34.8663 87.2692 35.5184 86.9433 35.9548C85.2129 37.2591 82.8307 36.8227 80.669 36.8227C79.5858 36.9282 78.6127 36.7124 77.8554 35.9548C77.5295 35.6287 77.3138 35.0868 77.5295 34.545M76.4462 41.8194L76.1203 42.1455H73.4169C73.0191 42.2749 73.0191 42.8552 73.091 43.2292L72.8753 52.8916L72.4439 53.1074L63.2506 52.9971L62.9247 52.5656V46.9167L62.8192 42.3564C61.9565 41.9249 60.8732 42.2509 60.0057 42.0304L59.6797 41.7043L59.79 38.8799L60.1159 38.5538C61.0889 38.338 62.2776 38.8799 63.0349 38.1222V34.8615C63.5766 34.1038 64.6263 34.4395 65.6328 34.4299C67.9048 34.4107 70.3925 34.4299 72.7699 34.6457L72.9856 34.9718L73.0958 38.2277C74.0688 38.8799 75.4732 38.338 76.4462 38.8799C76.6619 39.8581 76.5565 40.7261 76.4462 41.8098M59.1429 49.6309C58.4958 50.6091 57.7385 51.8031 56.545 52.2347C54.273 53.4287 51.5697 53.2129 48.9766 53.4287C46.0575 53.4287 43.2439 53.4287 40.2147 53.1026C38.2686 52.7766 36.3226 51.9086 35.1339 50.0624C33.835 47.4538 33.835 44.0875 35.0237 41.3734C37.0799 37.7914 41.4034 38.2229 44.9743 37.9017L52.2215 38.1174C54.9249 38.2277 57.8439 39.0957 59.2483 41.8098C59.9002 44.1978 60.2213 47.3483 59.1429 49.6309ZM31.7787 50.9352C29.7224 53.3232 26.5877 53.6493 23.6638 53.4335L10.1471 53.2177C8.30654 53.1074 6.47075 52.6758 5.27725 51.1557C4.73563 50.2878 4.41448 49.1993 4.41448 48.2211C4.52473 47.4634 5.3875 47.895 5.92912 47.7895H15.7695C16.6323 47.895 16.3111 48.8732 16.8528 49.3096C17.9312 49.9617 19.5561 50.072 20.6394 49.3096C21.0707 48.878 21.6124 48.2258 21.2864 47.4634C21.1762 46.4852 20.2271 46.1447 19.3404 46.0536C15.5538 45.8378 11.5563 46.2694 7.87515 45.5117C6.25027 45.0754 4.84587 43.5553 4.52473 41.8194C3.87765 38.995 4.30903 35.8445 6.79669 33.9983C8.74271 32.8043 11.0147 32.4782 13.3921 32.4782L24.5314 32.5837C27.0191 32.694 29.8327 33.0201 31.3473 35.4081C31.6732 36.2761 32.1046 37.4701 31.563 38.338L30.9159 38.4483C27.5655 38.2325 24.2103 38.6641 20.8598 38.2325C20.5339 37.4749 20.2128 36.4966 19.3452 36.2761C18.3722 36.2761 17.2889 36.0603 16.5364 36.6021C15.8893 37.0337 15.6688 37.7962 15.9948 38.5586C16.3207 39.1005 16.8623 39.6423 17.5094 39.6423C21.1858 39.8581 24.7567 39.8581 28.3276 40.0787C30.0579 40.4048 31.8985 41.3782 32.5456 43.2292C33.3029 45.7275 33.1927 48.7677 31.7883 50.94M111.69 31.9028C113.344 31.9028 114.657 33.255 114.657 34.8902C114.657 36.5254 113.31 37.8777 111.69 37.8777C110.07 37.8777 108.704 36.5254 108.704 34.8902C108.704 33.255 110.013 31.9028 111.69 31.9028ZM60.1015 7.91211C27.2396 7.91211 0.599121 23.9714 0.599121 43.7806C0.599121 63.5899 27.2396 79.6492 60.1015 79.6492C92.9635 79.6492 119.604 63.5899 119.604 43.7806C119.604 23.9714 92.9587 7.91211 60.1015 7.91211Z" fill="#E30613"/>
<path d="M110.42 33.2168H111.853C112.064 33.2168 113.052 33.2168 113.052 34.147C113.052 34.5211 112.884 34.8663 112.419 34.9766V34.991C112.884 35.1253 112.975 35.4082 112.989 35.8446C113.018 36.4248 113.018 36.4919 113.1 36.631H112.673C112.611 36.5303 112.587 36.4296 112.572 35.998C112.572 35.4609 112.481 35.1828 111.7 35.1828H110.852V36.631H110.425V33.212L110.42 33.2168ZM111.69 37.4845C113.095 37.4845 114.236 36.3337 114.236 34.8951C114.236 33.4565 113.128 32.3057 111.69 32.3057C110.252 32.3057 109.145 33.4949 109.145 34.8951C109.145 36.2953 110.267 37.4845 111.69 37.4845Z" fill="#E30613"/>
<path d="M112.62 34.171C112.62 33.6147 112.007 33.6147 111.781 33.6147H110.847V34.7944H111.705C111.93 34.7944 112.625 34.7944 112.625 34.1662" fill="#E30613"/>
</g>
</g>
<defs>
<clipPath id="clip0_572_1383">
<rect width="119" height="89" fill="white" transform="translate(0.599121 0.316406)"/>
</clipPath>
</defs>
</svg>
